<?xml version="1.0" standalone="no"?>
<!DOCTYPE svg PUBLIC "-//W3C//DTD SVG 20010904//EN"
 "http://www.w3.org/TR/2001/REC-SVG-20010904/DTD/svg10.dtd">
<svg version="1.0" xmlns="http://www.w3.org/2000/svg"
 width="1024.000000pt" height="539.000000pt" viewBox="0 0 1024.000000 539.000000"
 preserveAspectRatio="xMidYMid meet">

<g transform="translate(0.000000,539.000000) scale(0.100000,-0.100000)"
fill="#000000" stroke="none">
<path d="M0 3940 l0 -1450 5120 0 5120 0 0 205 0 205 -3072 2 -3073 3 0 205 0
205 3073 3 3072 2 0 205 0 205 -3072 2 -3073 3 0 205 0 205 3073 3 3072 2 0
205 0 205 -3072 2 -3073 3 0 205 0 205 3073 3 3072 2 0 205 0 205 -5120 0
-5120 0 0 -1450z m438 1208 l57 -3 -47 -33 -47 -32 19 -55 c10 -30 16 -55 13
-55 -3 0 -22 14 -43 30 -21 17 -42 30 -47 30 -5 0 -28 -14 -51 -31 -46 -34
-49 -31 -27 31 17 49 13 57 -44 92 l-36 23 59 5 c59 5 59 5 73 45 7 22 16 47
19 55 4 9 14 -6 26 -42 l19 -57 57 -3z m685 2 l61 0 -47 -32 c-26 -18 -47 -38
-47 -44 0 -6 7 -31 15 -54 8 -24 14 -45 12 -47 -2 -1 -21 10 -43 27 -21 16
-43 29 -49 29 -5 0 -28 -13 -49 -29 -22 -17 -41 -28 -44 -26 -2 3 4 28 13 57
15 43 15 53 4 60 -8 4 -29 19 -48 33 l-35 26 60 0 60 0 19 58 18 57 19 -57 20
-58 61 0z m603 55 l18 -55 60 0 60 0 -35 -26 c-19 -14 -40 -29 -48 -33 -12 -7
-11 -16 3 -56 23 -68 21 -70 -26 -36 -23 17 -46 31 -50 31 -5 0 -27 -14 -50
-30 -23 -17 -43 -29 -44 -27 -2 2 4 27 14 56 l17 54 -25 16 c-13 9 -33 24 -44
33 -20 17 -19 17 36 18 l57 0 17 55 c10 30 19 55 20 55 2 0 11 -25 20 -55z
m685 -3 l16 -47 58 -5 58 -5 -46 -33 -46 -32 15 -41 c23 -66 18 -72 -31 -37
l-45 32 -45 -32 c-25 -18 -47 -32 -50 -32 -2 0 5 25 15 55 l19 55 -46 32 -46
33 59 5 59 5 15 52 c8 29 17 50 20 47 3 -3 12 -26 21 -52z m757 -54 l57 -3
-47 -33 -47 -32 19 -55 c20 -59 19 -60 -37 -19 -17 13 -36 24 -40 24 -5 0 -28
-14 -51 -31 -46 -34 -49 -31 -27 31 8 23 15 44 15 46 0 2 -21 19 -46 38 l-46
35 58 3 c57 3 57 3 71 43 7 22 16 47 19 55 4 9 14 -6 26 -42 l19 -57 57 -3z
m608 57 l18 -55 60 0 60 0 -47 -32 c-26 -18 -47 -38 -47 -44 0 -6 7 -31 15
-54 8 -24 14 -45 12 -47 -2 -1 -21 10 -43 27 -21 16 -43 29 -49 29 -5 0 -28
-13 -49 -29 -22 -17 -41 -28 -43 -27 -2 2 4 23 12 47 8 23 15 48 15 54 0 6
-21 26 -47 44 l-47 32 60 0 60 0 18 55 c9 30 19 55 21 55 2 0 12 -25 21 -55z
m-2998 -345 l57 -1 -25 -20 c-14 -12 -34 -27 -44 -35 -18 -12 -18 -16 -3 -69
17 -59 16 -60 -40 -19 -17 13 -35 24 -38 24 -4 0 -26 -14 -51 -30 -49 -34 -51
-32 -29 30 8 23 15 44 15 46 0 2 -21 19 -46 39 l-47 35 60 0 60 0 13 48 c19
70 22 71 43 9 l19 -57 56 0z m608 55 l18 -55 60 0 60 0 -35 -26 c-19 -14 -41
-29 -49 -34 -13 -7 -12 -15 3 -61 9 -29 15 -54 13 -56 -1 -2 -20 10 -42 27
-21 16 -43 29 -49 29 -5 0 -28 -13 -49 -29 -22 -17 -41 -28 -43 -27 -2 2 4 23
12 47 8 23 15 48 15 54 0 6 -21 26 -47 44 l-47 32 60 0 60 0 18 55 c9 30 19
55 21 55 2 0 12 -25 21 -55z m685 -3 l16 -47 59 -5 59 -5 -36 -23 c-57 -35
-61 -43 -44 -92 22 -62 19 -65 -27 -31 -23 17 -46 31 -51 31 -5 0 -26 -13 -47
-30 -21 -16 -40 -30 -43 -30 -3 0 3 25 13 55 l19 55 -47 32 -47 33 57 3 57 3
17 54 c10 30 20 52 23 49 3 -3 13 -26 22 -52z m753 -52 l59 -5 -46 -33 -46
-32 19 -55 c10 -30 16 -55 13 -55 -3 0 -22 14 -43 30 -21 17 -42 30 -47 30 -5
0 -28 -14 -51 -31 -47 -34 -51 -28 -27 40 l14 42 -45 32 -46 32 58 5 c56 5 57
6 71 45 7 22 16 47 19 55 4 9 13 -7 23 -40 l17 -55 58 -5z m684 0 l57 -1 -25
-20 c-14 -12 -34 -27 -44 -35 -19 -13 -19 -15 -3 -66 9 -28 15 -53 13 -55 -1
-2 -20 10 -42 27 -21 16 -43 30 -47 30 -5 0 -28 -14 -53 -30 -49 -34 -51 -32
-29 30 8 23 15 44 15 46 0 2 -21 19 -46 39 l-47 35 60 0 59 0 19 58 18 57 19
-57 20 -58 56 0z m-3072 -290 l59 -5 -47 -33 -47 -32 19 -55 c10 -30 16 -55
13 -55 -3 0 -22 14 -43 30 -21 17 -42 30 -47 30 -5 0 -28 -14 -51 -31 -46 -34
-49 -31 -27 31 17 49 13 57 -44 92 l-36 23 59 5 c59 5 59 5 73 45 24 72 25 72
43 15 l17 -55 59 -5z m687 0 l61 0 -47 -32 c-26 -18 -47 -38 -47 -44 0 -6 7
-31 15 -54 8 -24 14 -45 12 -47 -2 -1 -21 10 -43 27 -21 16 -43 29 -49 29 -5
0 -28 -13 -49 -29 -22 -17 -41 -28 -43 -27 -1 2 4 28 13 57 13 44 13 55 2 61
-7 4 -28 19 -47 33 l-35 26 60 0 60 0 19 58 18 57 19 -57 20 -58 61 0z m603
55 l18 -55 59 0 60 0 -47 -35 c-25 -20 -46 -37 -46 -39 0 -2 7 -23 15 -46 22
-62 20 -64 -29 -30 -25 16 -47 30 -50 30 -4 0 -25 -14 -48 -30 -23 -17 -43
-29 -44 -27 -2 2 4 27 13 55 16 51 16 53 -3 66 -10 8 -30 23 -44 35 l-25 20
57 1 57 0 17 55 c10 30 19 55 20 55 2 0 11 -25 20 -55z m685 -3 l16 -47 58 -5
58 -5 -46 -32 -45 -33 14 -47 c20 -66 19 -68 -31 -32 l-45 33 -45 -32 c-25
-18 -47 -32 -50 -32 -2 0 5 25 15 55 l19 55 -46 32 -46 33 59 5 59 5 15 52 c8
29 17 50 20 47 3 -3 12 -26 21 -52z m757 -54 l57 -3 -47 -34 -46 -33 18 -54
c20 -58 19 -59 -37 -18 -17 13 -36 24 -40 24 -5 0 -28 -14 -51 -31 -46 -34
-49 -31 -27 31 17 49 13 57 -44 92 l-36 23 59 5 c59 5 59 5 73 45 7 22 16 47
19 55 4 9 14 -6 26 -42 l19 -57 57 -3z m608 57 l18 -55 60 0 60 0 -35 -26
c-19 -14 -41 -29 -49 -34 -13 -7 -12 -15 3 -61 9 -29 15 -54 13 -56 -1 -2 -20
10 -42 27 -21 16 -43 29 -49 29 -5 0 -28 -13 -49 -29 -22 -17 -41 -28 -43 -27
-2 2 4 23 12 47 8 23 15 48 15 54 0 6 -21 26 -47 44 l-47 32 60 0 60 0 18 55
c9 30 19 55 21 55 2 0 12 -25 21 -55z m-2998 -345 l57 -1 -25 -20 c-14 -12
-34 -27 -44 -35 -19 -13 -19 -16 -4 -68 16 -59 15 -60 -39 -20 -17 13 -35 24
-38 24 -4 0 -26 -14 -51 -30 -49 -34 -51 -32 -29 30 8 23 15 44 15 46 0 2 -21
19 -46 39 l-47 35 60 0 59 0 19 58 18 57 19 -57 20 -58 56 0z m608 55 l18 -55
60 0 60 0 -35 -26 c-19 -14 -41 -29 -49 -34 -13 -7 -12 -15 3 -61 9 -29 15
-54 13 -56 -1 -2 -20 10 -42 27 -21 16 -43 29 -49 29 -5 0 -28 -13 -49 -29
-22 -17 -41 -28 -43 -27 -2 2 4 23 12 47 8 23 15 48 15 54 0 6 -21 26 -47 44
l-47 32 60 0 60 0 18 55 c9 30 19 55 21 55 2 0 12 -25 21 -55z m685 -3 l16
-47 58 -5 58 -5 -47 -33 c-25 -18 -46 -35 -46 -36 0 -2 7 -23 15 -46 22 -62
19 -65 -27 -31 -23 17 -46 31 -51 31 -5 0 -26 -13 -47 -30 -21 -16 -40 -30
-43 -30 -3 0 3 25 13 55 l19 55 -47 32 -47 33 57 3 57 3 17 54 c10 30 20 52
23 49 3 -3 13 -26 22 -52z m1442 -52 l61 0 -47 -32 c-26 -18 -47 -38 -47 -44
0 -6 7 -31 15 -54 8 -24 14 -45 12 -47 -2 -2 -22 10 -45 27 -23 16 -45 30 -49
30 -5 0 -26 -14 -47 -30 -22 -17 -41 -28 -44 -25 -2 2 3 25 12 51 9 26 16 49
16 50 0 2 -21 19 -46 39 l-47 35 60 0 59 0 19 58 18 57 19 -57 20 -58 61 0z
m-762 53 l15 -48 59 -5 60 -5 -47 -33 -47 -32 19 -55 c10 -30 17 -55 15 -55
-3 0 -25 14 -50 32 l-45 32 -45 -33 c-50 -36 -51 -34 -31 32 l14 47 -45 33
-46 32 59 5 58 5 15 48 c8 26 17 47 21 47 4 0 13 -21 21 -47z m-2315 -343 l59
-5 -47 -33 -47 -32 19 -55 c10 -30 16 -55 13 -55 -3 0 -22 14 -43 30 -21 17
-42 30 -47 30 -5 0 -28 -14 -51 -31 -46 -34 -49 -31 -27 31 8 23 15 44 15 46
0 1 -21 18 -46 36 l-47 33 58 5 c57 5 58 5 72 45 24 72 25 72 43 15 l17 -55
59 -5z m687 0 l61 0 -35 -26 c-19 -14 -41 -29 -49 -34 -13 -7 -12 -15 3 -61 9
-29 15 -54 13 -56 -1 -2 -20 10 -42 27 -21 16 -43 29 -49 29 -5 0 -28 -13 -49
-29 -22 -17 -41 -28 -43 -27 -1 2 4 28 13 57 13 44 13 55 2 61 -7 4 -28 19
-47 33 l-35 26 60 0 60 0 19 58 18 57 19 -57 20 -58 61 0z m603 55 l18 -55 60
-1 c60 0 61 0 36 -17 -70 -48 -72 -53 -55 -101 22 -63 20 -65 -29 -31 -25 16
-48 30 -51 30 -4 0 -25 -14 -47 -31 -21 -17 -41 -30 -43 -27 -3 2 3 28 12 56
16 51 16 53 -3 66 -10 8 -30 23 -44 35 l-25 20 57 1 57 0 17 55 c10 30 19 55
20 55 2 0 11 -25 20 -55z m1442 -57 l57 -3 -47 -34 -46 -33 18 -54 c11 -30 16
-54 13 -54 -3 0 -22 14 -43 30 -21 17 -41 30 -45 30 -3 0 -26 -14 -51 -30 -49
-34 -51 -32 -29 31 17 48 15 53 -55 101 -25 17 -24 17 36 17 59 1 62 2 67 29
3 15 11 41 17 57 l12 30 20 -57 19 -57 57 -3z m607 57 l16 -55 62 0 61 0 -35
-26 c-19 -14 -41 -29 -49 -34 -13 -7 -12 -15 3 -61 9 -29 15 -54 13 -56 -1 -2
-20 10 -42 27 -21 16 -43 29 -49 29 -5 0 -28 -13 -49 -29 -22 -17 -41 -29 -42
-27 -2 2 4 27 13 56 15 46 16 54 3 61 -8 5 -30 20 -49 34 l-35 26 60 0 60 0
18 55 c9 30 19 55 21 55 3 0 12 -25 20 -55z m-1364 -2 l15 -48 58 -5 59 -5
-46 -32 -45 -33 14 -47 c20 -66 19 -68 -31 -32 l-45 32 -44 -31 c-24 -18 -47
-32 -50 -32 -3 0 4 25 14 55 l19 55 -46 32 -46 33 59 5 58 5 15 48 c8 26 17
47 21 47 4 0 13 -21 21 -47z m-1628 -343 l61 0 -47 -32 c-26 -18 -47 -38 -47
-44 0 -6 6 -32 14 -57 8 -26 12 -47 9 -47 -3 0 -22 14 -43 30 -21 17 -42 30
-46 30 -5 0 -27 -14 -48 -30 -22 -17 -41 -28 -44 -25 -2 2 3 26 12 52 18 53
17 56 -54 105 -25 17 -24 17 36 17 l60 1 19 58 18 57 19 -57 20 -58 61 0z
m603 55 l18 -55 59 0 60 0 -47 -35 c-25 -20 -46 -40 -46 -44 0 -5 7 -28 15
-51 8 -24 14 -45 12 -47 -2 -1 -21 10 -43 27 -21 16 -42 30 -47 30 -4 0 -26
-14 -49 -30 -23 -17 -43 -29 -44 -27 -2 2 4 27 13 56 15 46 16 54 3 61 -8 5
-30 20 -49 34 l-35 26 61 0 62 0 16 55 c8 30 17 55 20 55 2 0 12 -25 21 -55z
m684 -5 l12 -50 61 0 62 -1 -27 -20 c-73 -55 -71 -49 -53 -98 22 -63 20 -66
-30 -30 l-45 33 -45 -32 c-25 -18 -47 -32 -50 -32 -2 0 5 25 15 55 l19 55 -47
32 -47 33 57 3 57 3 17 54 c10 30 21 52 25 50 4 -3 12 -27 19 -55z m1443 -50
l61 0 -47 -32 c-26 -18 -47 -38 -47 -44 0 -6 7 -31 15 -54 8 -24 14 -45 12
-47 -2 -2 -22 10 -45 27 -23 16 -45 30 -49 30 -5 0 -26 -14 -47 -30 -22 -17
-41 -28 -44 -25 -2 2 3 25 12 51 9 26 16 49 16 50 0 2 -21 19 -46 39 l-47 35
60 0 59 0 19 58 18 57 19 -57 20 -58 61 0z m-762 53 l15 -48 59 -5 60 -5 -47
-33 -47 -32 19 -55 c10 -30 17 -55 15 -55 -3 0 -25 14 -50 32 l-45 32 -45 -33
c-50 -36 -51 -35 -30 31 l14 48 -46 32 -46 33 59 5 58 5 15 48 c8 26 17 47 21
47 4 0 13 -21 21 -47z m-2316 -343 l60 -5 -47 -34 -46 -33 18 -54 c11 -30 17
-54 15 -54 -3 0 -24 14 -49 31 l-44 31 -46 -31 c-51 -35 -53 -33 -31 29 8 23
15 44 15 46 0 1 -21 18 -46 36 l-47 33 58 5 c57 5 58 5 72 45 24 72 25 72 42
15 l17 -55 59 -5z m688 0 l61 0 -35 -26 c-19 -14 -41 -29 -49 -34 -13 -7 -12
-15 3 -61 9 -29 15 -54 13 -56 -1 -2 -21 10 -44 27 -23 16 -45 30 -49 30 -5 0
-26 -14 -47 -30 -44 -34 -50 -33 -38 1 26 70 25 76 -24 113 l-47 36 60 0 59 0
19 58 18 57 19 -57 20 -58 61 0z m603 55 l18 -55 60 -1 c60 0 61 0 36 -17 -71
-49 -72 -52 -54 -105 9 -26 14 -50 12 -52 -3 -3 -22 8 -44 25 -21 16 -43 30
-48 30 -4 0 -26 -14 -48 -31 -21 -17 -41 -29 -44 -27 -2 3 3 24 11 48 8 23 15
48 15 54 0 6 -21 26 -47 44 l-47 32 61 0 62 0 17 55 c10 30 19 55 20 55 2 0
11 -25 20 -55z m1442 -57 l57 -3 -47 -34 -46 -33 18 -54 c11 -30 16 -54 13
-54 -3 0 -22 14 -43 30 -21 17 -41 30 -45 30 -3 0 -26 -14 -51 -30 -49 -34
-51 -32 -29 31 17 48 15 53 -55 101 -25 17 -24 17 37 17 61 1 61 1 68 34 4 17
12 43 17 57 10 24 11 22 30 -32 l19 -57 57 -3z m607 57 l16 -55 61 0 61 0 -47
-35 c-25 -20 -46 -40 -46 -44 0 -5 7 -28 15 -51 8 -24 14 -45 12 -47 -2 -1
-21 10 -43 27 -21 16 -43 29 -49 29 -5 0 -28 -13 -49 -29 -22 -17 -41 -29 -42
-27 -2 2 4 27 13 56 15 46 16 54 3 61 -8 5 -30 20 -49 34 l-35 26 60 0 60 0
18 55 c9 30 19 55 21 55 3 0 12 -25 20 -55z m-1364 -2 l15 -48 58 -5 59 -5
-46 -33 -46 -32 14 -48 c21 -66 20 -67 -30 -31 l-45 32 -44 -31 c-24 -18 -47
-32 -50 -32 -3 0 4 25 14 55 l19 55 -47 32 -47 33 60 5 59 5 15 48 c8 26 17
47 21 47 4 0 13 -21 21 -47z m-1633 -345 l57 -3 -42 -30 c-47 -33 -50 -43 -28
-104 8 -22 12 -41 8 -41 -3 0 -22 14 -43 30 -21 17 -42 30 -46 30 -5 0 -27
-14 -48 -30 -22 -17 -41 -28 -44 -25 -2 2 3 26 12 52 18 53 17 56 -54 105 -25
17 -24 17 36 17 l60 1 19 58 18 57 19 -57 19 -57 57 -3z m608 57 l18 -55 59 0
60 0 -47 -35 c-25 -20 -46 -40 -46 -44 0 -5 7 -28 15 -51 8 -24 14 -45 12 -47
-2 -1 -21 10 -43 27 -21 16 -42 30 -47 30 -4 0 -26 -14 -49 -30 -23 -17 -43
-29 -44 -27 -2 2 4 27 13 56 15 46 16 54 3 61 -8 5 -30 20 -49 34 l-35 26 62
0 61 0 16 55 c9 30 18 55 20 55 2 0 12 -25 21 -55z m684 -5 l12 -50 61 0 62
-1 -27 -20 c-73 -55 -71 -49 -53 -98 22 -63 20 -65 -31 -30 l-46 31 -44 -31
c-25 -17 -46 -31 -49 -31 -2 0 4 24 15 54 l18 54 -46 33 -47 34 57 3 57 3 17
54 c10 30 21 52 25 50 4 -3 12 -27 19 -55z m1443 -50 l61 0 -35 -26 c-19 -14
-41 -29 -49 -34 -13 -7 -12 -15 3 -61 9 -29 15 -54 13 -56 -1 -2 -21 10 -44
27 -23 16 -45 30 -49 30 -5 0 -26 -14 -47 -30 -22 -17 -41 -28 -44 -25 -2 2 3
26 12 52 18 53 17 56 -54 105 -25 17 -24 17 36 17 l60 1 19 58 18 57 19 -57
20 -58 61 0z m-762 53 l15 -48 59 -5 60 -5 -47 -34 -46 -33 18 -54 c11 -30 17
-54 14 -54 -3 0 -26 14 -50 32 l-44 31 -45 -32 c-50 -36 -51 -35 -30 31 l14
48 -46 32 -46 33 59 5 58 5 15 48 c8 26 17 47 21 47 4 0 13 -21 21 -47z
m-2316 -343 l60 -5 -47 -34 -46 -33 18 -54 c11 -30 17 -54 15 -54 -3 0 -24 14
-49 31 l-44 31 -46 -31 c-51 -35 -53 -33 -31 29 8 23 15 44 15 46 0 1 -21 18
-46 36 l-47 33 58 5 c57 5 58 5 72 45 24 72 25 72 42 15 l17 -55 59 -5z m688
0 l61 0 -35 -26 c-19 -14 -41 -29 -49 -34 -13 -7 -12 -15 3 -61 9 -29 15 -54
13 -56 -1 -2 -21 10 -44 27 -23 16 -45 30 -49 30 -5 0 -26 -14 -47 -30 -44
-34 -50 -33 -38 1 26 70 25 76 -24 113 l-47 36 60 0 59 0 19 58 18 57 19 -57
20 -58 61 0z m603 55 l18 -55 60 0 61 -1 -27 -20 c-73 -55 -70 -49 -52 -102 9
-26 14 -50 12 -52 -3 -3 -22 8 -44 25 -21 16 -43 30 -48 30 -4 0 -26 -14 -48
-31 -21 -17 -41 -29 -44 -27 -2 3 3 24 11 48 8 23 15 48 15 54 0 6 -21 26 -47
44 l-47 32 61 0 62 0 17 55 c10 30 19 55 20 55 2 0 11 -25 20 -55z m1442 -57
l57 -3 -47 -34 -46 -33 18 -54 c11 -30 17 -54 15 -54 -3 0 -24 14 -49 31 l-45
32 -42 -31 c-23 -18 -45 -30 -47 -27 -2 2 3 26 12 52 18 53 21 47 -52 102
l-27 20 62 1 c61 0 61 0 68 33 4 17 12 43 17 57 10 24 11 22 30 -32 l19 -57
57 -3z m607 57 l16 -55 61 0 61 0 -47 -35 c-25 -20 -46 -40 -46 -44 0 -5 7
-28 15 -51 8 -24 14 -45 12 -47 -2 -2 -22 10 -45 27 -23 16 -44 30 -47 30 -3
0 -24 -14 -47 -30 -23 -17 -43 -29 -45 -27 -2 2 4 23 12 47 8 23 15 46 15 51
0 4 -21 24 -46 44 l-47 35 60 0 59 0 18 55 c9 30 19 55 21 55 2 0 11 -25 20
-55z m-1364 -2 l15 -48 59 -5 60 -5 -47 -33 -47 -32 14 -48 c21 -66 20 -67
-30 -31 l-45 32 -44 -31 c-24 -18 -47 -32 -50 -32 -3 0 4 25 14 55 l19 55 -47
32 -47 33 60 5 59 5 15 48 c8 26 17 47 21 47 4 0 13 -21 21 -47z"/>
<path d="M0 1865 l0 -205 5120 0 5120 0 0 205 0 205 -5120 0 -5120 0 0 -205z"/>
<path d="M0 1035 l0 -205 5120 0 5120 0 0 205 0 205 -5120 0 -5120 0 0 -205z"/>
<path d="M0 205 l0 -205 5120 0 5120 0 0 205 0 205 -5120 0 -5120 0 0 -205z"/>
</g>
</svg>
