<?xml version="1.0" standalone="no"?>
<!DOCTYPE svg PUBLIC "-//W3C//DTD SVG 20010904//EN"
 "http://www.w3.org/TR/2001/REC-SVG-20010904/DTD/svg10.dtd">
<svg version="1.0" xmlns="http://www.w3.org/2000/svg"
 width="2560.000000pt" height="1463.000000pt" viewBox="0 0 2560.000000 1463.000000"
 preserveAspectRatio="xMidYMid meet">

<g transform="translate(0.000000,1463.000000) scale(0.100000,-0.100000)"
fill="#000000" stroke="none">
<path d="M0 7315 l0 -7315 4265 0 4265 0 0 7315 0 7315 -4265 0 -4265 0 0
-7315z"/>
<path d="M17070 7315 l0 -7315 4265 0 4265 0 0 7315 0 7315 -4265 0 -4265 0 0
-7315z"/>
<path d="M12897 10209 c-69 -10 -137 -44 -153 -78 -11 -21 -20 -24 -76 -26
-136 -7 -201 -68 -201 -188 0 -88 18 -106 139 -137 54 -14 119 -36 142 -49
101 -52 182 -162 182 -245 0 -46 -9 -86 -19 -86 -3 0 -24 32 -46 71 -22 40
-60 89 -85 110 l-45 38 -23 -22 c-29 -27 -53 -25 -150 14 -41 16 -80 29 -88
29 -8 0 -17 7 -20 15 -4 8 -10 13 -15 10 -10 -7 -129 27 -129 36 0 4 16 9 35
12 40 7 116 -11 204 -47 109 -44 151 -45 172 -3 9 18 9 20 -2 10 -22 -22 -79
-15 -186 22 -67 23 -124 37 -162 38 l-60 1 -10 43 c-6 24 -20 57 -30 74 l-19
31 5 -64 c6 -77 -11 -122 -62 -167 -20 -17 -29 -31 -21 -31 7 0 28 13 45 29
36 33 39 26 12 -27 -20 -38 -94 -114 -145 -147 -26 -17 -29 -18 -40 -3 -11 15
-13 15 -24 -2 -14 -23 -65 -51 -106 -59 -23 -5 -32 -14 -38 -39 -11 -42 -60
-73 -108 -70 -68 4 -66 -13 6 -44 55 -23 78 -28 114 -24 146 18 167 18 201 1
19 -10 44 -28 56 -41 12 -13 29 -24 37 -24 9 0 20 -16 27 -40 7 -22 18 -40 26
-40 7 0 31 18 53 40 22 22 42 40 45 40 18 0 -1 -56 -37 -106 l-41 -59 51 50
c29 27 57 65 63 85 14 43 27 60 46 60 11 0 14 -9 11 -35 -2 -19 0 -35 4 -35 4
0 8 -36 8 -80 0 -49 4 -80 10 -80 15 0 58 95 71 159 6 30 9 79 7 108 -4 46 -2
53 13 53 59 0 -6 80 -108 132 -47 25 -58 35 -45 40 10 4 2 7 -24 7 -40 1 -144
27 -144 37 0 2 7 16 16 29 20 31 39 31 127 3 83 -27 151 -83 188 -154 13 -26
32 -56 42 -66 21 -22 21 -29 2 -75 -21 -49 -19 -54 6 -14 11 18 22 31 25 28 5
-4 33 -190 34 -222 0 -5 5 -4 10 1 6 6 17 56 24 110 13 94 14 98 26 69 22 -51
3 -172 -35 -229 -14 -20 -20 -36 -15 -36 14 0 12 -43 -6 -151 -12 -68 -24
-105 -44 -134 -31 -46 -134 -145 -149 -145 -12 0 -2 -32 13 -42 5 -3 22 0 38
8 l28 15 0 -41 c0 -26 -9 -54 -24 -78 -26 -39 -46 -109 -28 -98 5 3 15 19 22
36 23 55 31 42 85 -139 23 -78 35 -137 33 -164 l-3 -42 -41 41 c-23 23 -60 65
-82 92 -22 28 -42 49 -45 46 -10 -10 -29 64 -33 134 -13 225 -13 222 3 222 8
0 13 3 11 8 -27 51 -39 91 -36 114 3 15 2 28 -2 28 -4 0 -33 -22 -64 -50 -82
-71 -126 -78 -147 -23 -13 35 -6 71 36 198 31 91 39 104 87 148 l53 48 3 -26
c2 -15 -3 -34 -12 -44 -14 -16 -46 -83 -46 -97 0 -4 9 1 20 11 31 28 35 11 12
-52 -27 -72 -21 -81 10 -14 12 28 27 50 33 48 5 -2 15 -26 20 -53 l11 -48 17
77 c22 102 22 123 -3 130 -13 3 -31 27 -48 66 l-27 60 -18 -44 c-20 -48 -65
-83 -121 -94 -26 -6 -41 -23 -103 -121 -39 -63 -72 -121 -72 -127 -1 -7 7 -13
17 -13 12 0 22 16 35 58 21 71 113 200 130 183 8 -8 1 -41 -27 -126 -37 -114
-38 -115 -69 -115 -26 -1 -35 -7 -48 -33 -9 -18 -35 -69 -59 -114 -59 -115
-64 -179 -21 -284 17 -41 38 -121 47 -176 l17 -101 34 20 c19 11 35 19 37 17
35 -47 48 -86 50 -153 4 -93 31 -153 117 -255 38 -46 68 -93 79 -127 11 -30
17 -54 15 -54 -1 0 -12 16 -24 35 -13 22 -36 42 -58 52 -47 19 -93 51 -93 64
0 5 10 14 23 19 21 8 21 9 -5 9 -38 1 -40 -9 -14 -65 21 -46 31 -54 102 -92
66 -34 83 -48 104 -86 33 -62 38 -50 5 14 -26 51 -75 240 -75 290 0 23 5 20
56 -32 l57 -56 -17 -41 c-9 -23 -16 -53 -16 -66 0 -23 2 -24 20 -13 26 16 40
-1 40 -52 0 -19 5 -53 10 -75 5 -22 8 -40 7 -42 -13 -12 -66 -8 -103 7 -25 11
-73 23 -107 27 -54 7 -62 11 -65 31 -2 13 2 31 8 40 7 9 -4 -1 -24 -22 -38
-42 -40 -45 -28 -62 11 -16 100 -66 109 -61 4 2 26 -3 48 -13 l40 -17 -58 -6
c-37 -3 -75 -1 -103 8 -24 7 -44 12 -44 10 0 -2 23 -17 50 -35 28 -18 49 -34
48 -35 -6 -4 -173 16 -207 25 -19 5 -37 7 -39 5 -9 -9 84 -45 174 -66 l92 -22
-5 -38 c-5 -35 -3 -39 22 -45 37 -9 139 10 235 45 l78 29 31 -50 c52 -84 85
-53 97 91 l7 83 55 -64 c31 -34 84 -91 118 -124 34 -34 72 -81 84 -105 48 -97
95 -169 113 -175 24 -8 57 22 57 53 0 12 3 23 8 23 4 0 38 -32 76 -70 38 -39
74 -70 79 -70 6 0 8 30 4 81 l-7 81 35 -45 c34 -44 57 -61 69 -50 3 4 6 31 6
61 l0 55 23 -21 c28 -26 54 -28 59 -5 2 10 1 45 -3 78 -3 33 -5 61 -4 63 1 1
50 -56 110 -127 59 -71 119 -134 132 -140 36 -17 91 -13 111 7 16 17 19 16 58
-11 59 -42 109 -45 158 -12 34 23 42 25 62 14 34 -18 113 -5 183 30 50 26 72
31 129 31 53 0 79 6 118 25 56 28 99 68 90 84 -9 14 -283 224 -722 553 l-381
286 -7 78 c-10 110 -22 156 -61 242 -29 61 -38 73 -52 67 -10 -4 -34 -11 -55
-15 -34 -7 -36 -5 -42 23 -11 52 -9 56 27 50 80 -13 145 108 102 191 -21 40
-18 46 5 11 14 -21 20 -47 20 -87 0 -32 4 -58 8 -58 5 0 30 -27 56 -60 25 -33
61 -67 79 -74 17 -8 51 -22 75 -32 44 -18 97 -82 231 -276 50 -73 79 -97 100
-83 5 3 -8 31 -29 63 -22 31 -58 109 -81 172 -23 63 -50 127 -61 142 l-19 27
24 7 c33 8 71 -13 139 -78 42 -41 59 -66 67 -99 32 -125 148 -350 184 -357 17
-3 17 -1 -2 35 -11 22 -27 68 -36 104 -38 147 -96 335 -111 357 -15 22 -15 23
4 13 31 -17 86 -85 114 -143 14 -29 49 -129 78 -222 28 -93 63 -192 78 -220
l27 -51 3 60 c4 71 -11 154 -44 250 -26 74 -54 215 -54 271 l0 33 34 -22 c41
-26 50 -56 66 -208 14 -138 50 -273 102 -379 40 -82 42 -89 45 -200 4 -128 9
-160 23 -160 26 0 0 572 -41 909 -5 46 -8 86 -5 88 8 8 45 -73 61 -133 8 -31
24 -138 36 -237 18 -159 25 -192 55 -260 l34 -78 0 -179 c0 -170 8 -230 29
-230 38 0 47 351 23 858 -8 151 -12 276 -9 278 2 3 21 -20 42 -51 43 -62 38
-24 65 -500 5 -104 17 -217 25 -250 19 -77 19 -210 0 -300 -23 -110 -16 -175
19 -175 18 0 26 22 26 71 0 22 9 58 21 80 17 35 23 82 39 314 23 324 30 377
73 515 30 97 32 115 32 245 -1 143 -15 233 -55 350 l-18 53 40 5 c37 5 57 19
58 39 0 4 -17 19 -39 32 -21 14 -53 42 -70 63 -32 37 -45 63 -175 337 -76 159
-143 273 -227 387 -110 148 -287 317 -422 403 -63 40 -63 39 -13 105 14 19 23
38 20 43 -4 6 -35 7 -75 3 -86 -9 -119 2 -206 67 -191 141 -592 281 -873 303
-41 3 -93 7 -115 9 -22 2 -66 0 -98 -5z m296 -88 c139 -36 215 -85 278 -180
19 -30 29 -57 29 -83 0 -56 -23 -48 -38 15 -15 67 -73 125 -155 155 -57 22
-152 30 -145 13 2 -5 38 -36 81 -70 42 -34 77 -63 77 -66 0 -2 -26 8 -57 22
-53 24 -69 27 -198 27 -116 1 -147 5 -179 20 -64 32 -98 115 -60 146 41 35
234 35 367 1z m-473 -60 c0 -16 3 -36 6 -45 5 -13 -2 -14 -43 -10 -26 3 -59 2
-72 -4 -22 -8 -20 -9 24 -15 78 -11 105 -47 35 -47 -44 0 -104 -21 -132 -47
-24 -22 -30 -13 -31 47 -1 35 5 58 19 78 28 38 99 72 151 72 41 0 43 -1 43
-29z m852 -80 c52 -45 118 -146 118 -181 0 -17 -7 -30 -16 -34 -22 -8 -22 -9
-43 67 -23 84 -39 108 -109 162 -96 75 -99 77 -44 49 29 -15 71 -43 94 -63z
m248 -79 c34 -34 60 -116 60 -188 0 -49 -12 -76 -24 -56 -3 5 -9 43 -15 86 -7
59 -17 90 -40 128 -17 27 -31 51 -31 54 0 13 25 0 50 -24z m-1003 -26 c17 -18
17 -18 -12 -12 -16 4 -75 10 -130 14 -87 6 -94 7 -55 13 83 13 178 5 197 -15z
m146 -70 c18 -7 41 -23 51 -35 20 -22 20 -22 0 -14 -10 4 -68 19 -129 34
l-110 27 78 1 c45 1 91 -5 110 -13z m1215 -47 c3 -36 2 -38 -73 -79 -42 -23
-94 -44 -115 -47 -34 -5 -38 -8 -30 -24 15 -28 12 -61 -10 -96 -19 -31 -23
-33 -77 -33 l-57 0 26 -27 c81 -89 100 -162 52 -210 -27 -27 -51 -27 -115 1
l-34 14 37 -5 c48 -7 97 13 104 42 8 32 -14 69 -95 158 -88 96 -95 119 -20 64
36 -26 115 -26 141 0 10 11 21 36 25 55 4 31 1 41 -21 61 -29 27 -34 42 -10
33 20 -8 68 21 109 65 36 38 101 70 135 67 21 -3 25 -9 28 -39z m-1921 -61
c-3 -8 -6 -5 -6 6 -1 11 2 17 5 13 3 -3 4 -12 1 -19z m794 2 c34 -10 78 -45
67 -55 -2 -3 -22 4 -43 15 -21 11 -54 23 -72 26 -18 3 -33 10 -33 15 0 12 36
11 81 -1z m1176 -58 c32 -78 -50 -110 -111 -43 -19 21 -19 21 24 61 48 45 62
42 87 -18z m-1032 -4 c75 -89 125 -443 81 -576 -30 -90 -162 -212 -229 -212
-30 0 -18 28 18 46 45 21 97 79 132 146 53 105 39 311 -38 541 -16 49 -29 90
-29 92 0 12 45 -13 65 -37z m-813 13 c29 -10 71 -24 93 -31 63 -20 149 -84
168 -126 10 -20 16 -39 13 -41 -3 -3 -24 11 -47 31 -49 41 -116 69 -236 95
-46 11 -86 21 -87 23 -6 6 24 68 33 68 5 0 33 -8 63 -19z m747 -157 c43 -35
39 -48 -7 -25 -21 11 -55 22 -75 26 -51 10 -47 25 7 25 33 0 52 -7 75 -26z
m1254 -9 c19 -13 36 -69 37 -113 0 -20 -10 -14 -77 44 -43 37 -82 71 -87 75
-17 15 108 9 127 -6z m-2097 -39 c19 -14 19 -15 -1 -52 l-20 -38 -5 40 c-6 45
-20 51 -91 35 l-44 -10 24 20 c28 23 108 26 137 5z m90 -32 c50 -33 71 -125
41 -184 -21 -41 -87 -35 -87 8 0 13 2 13 18 -1 23 -21 27 -21 46 -1 19 18 21
85 5 117 -6 12 -23 34 -37 50 -29 31 -23 35 14 11z m777 -122 c10 -9 24 -26
29 -37 10 -19 10 -19 -8 -3 -10 9 -39 28 -64 43 l-45 27 34 -6 c19 -4 43 -14
54 -24z m1457 -61 c0 -10 -9 -29 -20 -42 l-20 -24 -30 35 c-17 19 -30 37 -30
40 0 3 23 6 50 7 43 2 50 0 50 -16z m-764 -72 c8 -16 14 -44 14 -62 0 -45 -53
-94 -109 -103 l-39 -6 19 -42 c10 -22 19 -49 19 -59 0 -26 -88 -117 -114 -117
-19 0 -21 -5 -18 -44 2 -25 -1 -61 -8 -81 -15 -44 -84 -99 -117 -92 -19 3 -23
0 -23 -22 0 -34 -26 -72 -75 -112 -59 -46 -100 -62 -127 -48 -21 11 -20 13 19
24 92 27 153 87 153 151 0 21 -12 46 -35 75 -52 66 -42 82 14 22 26 -29 54
-53 61 -53 24 0 81 42 96 72 20 39 13 68 -37 136 -63 88 -50 127 15 47 28 -33
44 -45 64 -45 34 0 68 23 86 59 14 26 12 31 -20 89 -41 75 -43 88 -7 65 15
-10 24 -12 20 -5 -6 8 -2 12 10 12 32 1 101 38 118 64 16 24 16 28 -4 61 -26
45 -29 74 -5 54 8 -7 22 -25 30 -40z m-1085 -6 c13 -16 12 -17 -3 -4 -10 7
-18 15 -18 17 0 8 8 3 21 -13z m1959 -158 c7 -8 21 -15 31 -15 27 0 33 -19 13
-41 -33 -36 -50 -25 -92 64 -7 14 36 7 48 -8z m-70 -234 c36 -100 49 -193 30
-216 -28 -33 -140 7 -225 80 l-40 34 88 -44 c90 -46 127 -55 127 -32 0 7 -11
80 -25 163 -14 82 -25 151 -25 154 0 19 45 -70 70 -139z m166 38 c3 -5 -4 -9
-14 -9 -11 0 -22 6 -25 14 -4 10 0 12 14 9 11 -3 22 -9 25 -14z m-865 -228
c29 -47 34 -64 34 -118 0 -76 -9 -85 -82 -80 -50 3 -108 30 -99 46 3 4 29 4
58 0 29 -4 57 -3 62 1 4 5 -21 40 -58 79 -36 39 -66 75 -66 81 0 5 18 10 40
10 22 0 40 3 40 6 0 3 -18 36 -40 73 -22 37 -40 71 -40 77 1 16 117 -118 151
-175z m391 162 c34 -14 38 -18 22 -23 -13 -5 -21 -19 -24 -45 l-5 -39 -37 55
c-21 30 -38 58 -38 62 0 12 38 8 82 -10z m-254 -29 c16 -5 22 -14 22 -36 0
-30 54 -118 73 -118 6 0 7 26 2 66 -6 63 -6 65 12 55 11 -5 26 -17 33 -27 16
-18 117 -87 142 -97 18 -6 33 7 41 38 2 11 5 -1 6 -27 0 -26 -3 -49 -7 -52
-19 -12 -87 9 -134 40 l-49 33 7 -49 c6 -43 4 -49 -16 -60 -40 -22 -139 4
-205 53 -18 14 -13 14 44 1 35 -8 76 -14 90 -12 25 3 24 5 -34 68 -33 36 -69
75 -79 87 -29 35 -6 52 52 37z m-370 -221 c52 -82 59 -121 32 -177 -25 -53
-58 -72 -115 -66 -14 1 -10 5 15 14 19 7 36 20 38 30 2 9 -15 39 -38 66 -50
59 -48 82 4 73 44 -7 46 4 11 79 -14 29 -25 61 -25 72 0 17 2 16 19 -5 10 -13
36 -52 59 -86z m-1568 71 c0 -17 -69 -118 -77 -111 -3 3 8 38 32 105 4 12 45
18 45 6z m2755 -25 c57 -19 168 -79 161 -86 -7 -7 -143 18 -202 37 -33 11 -76
34 -95 51 l-34 30 55 -6 c30 -3 82 -15 115 -26z m-2585 -33 c0 -13 -16 -43
-36 -67 -30 -36 -64 -98 -64 -117 0 -4 14 10 31 31 17 20 35 35 40 32 16 -11
10 -94 -11 -132 -12 -23 -20 -55 -19 -83 l1 -45 13 46 c29 106 38 99 75 -65
17 -75 39 -121 51 -109 5 5 21 41 34 79 l25 69 0 -53 c0 -66 -15 -129 -39
-161 -15 -19 -22 -21 -37 -13 -28 15 -123 114 -154 161 -60 89 -90 251 -67
364 9 43 49 76 70 58 10 -8 22 -5 48 9 19 10 35 19 37 19 1 1 2 -10 2 -23z
m2139 -116 c14 -41 27 -180 17 -180 -24 0 -76 177 -76 260 0 23 1 23 23 -10
13 -19 29 -51 36 -70z m-2349 21 c0 -11 -4 -30 -9 -43 -4 -13 -11 -39 -15 -59
-6 -31 -4 -37 11 -35 15 1 19 -14 30 -114 7 -63 11 -119 9 -125 -5 -18 -35 50
-61 140 -36 124 -32 220 9 247 18 13 26 9 26 -11z m2630 -141 c27 -68 48 -125
46 -128 -6 -5 -45 57 -78 123 -21 41 -48 133 -48 163 0 20 35 -50 80 -158z
m-2060 48 c0 -4 -17 -1 -37 6 -33 11 -38 18 -41 47 l-3 34 40 -40 c23 -21 41
-42 41 -47z m1569 -72 c39 -83 54 -123 41 -111 -35 31 -81 113 -101 176 -39
126 -20 105 60 -65z m749 49 c4 -4 -15 -5 -42 -2 -46 5 -66 18 -66 44 0 12 91
-24 108 -42z m-978 -78 l62 -92 -52 50 c-51 50 -71 78 -85 124 -12 41 11 15
75 -82z m-1359 3 l24 -21 -35 7 c-41 8 -50 12 -50 25 0 16 37 10 61 -11z
m1161 -27 c36 -22 76 -79 64 -91 -4 -3 -25 12 -47 34 -46 45 -90 102 -68 89 7
-5 31 -19 51 -32z m-501 -35 c32 -60 34 -68 33 -161 0 -56 -5 -102 -12 -109
-14 -14 -102 36 -102 58 0 13 5 11 26 -5 44 -35 54 -28 54 37 0 31 -9 99 -19
150 -10 50 -17 92 -15 92 1 0 17 -28 35 -62z m1679 -8 c12 -8 11 -10 -7 -10
-13 0 -23 5 -23 10 0 13 11 13 30 0z m-1991 -161 c79 -120 151 -202 158 -182
3 7 -19 67 -48 133 -28 67 -49 123 -46 126 8 9 100 -42 126 -70 l24 -26 -36 0
c-20 0 -37 -2 -37 -5 0 -19 44 -87 70 -107 26 -20 32 -33 36 -79 10 -95 -25
-109 -112 -42 -41 31 -173 228 -198 295 -10 26 -22 50 -27 53 -14 9 -11 25 4
19 7 -2 45 -54 86 -115z m-156 -208 c40 -46 125 -119 161 -138 l29 -15 -21 33
c-39 65 -113 212 -110 220 2 5 20 -5 41 -22 21 -17 43 -32 50 -33 6 -1 29 -13
49 -26 39 -26 46 -44 49 -120 3 -122 -3 -126 -104 -77 -80 40 -105 59 -133
102 -10 17 -45 66 -77 110 -62 84 -110 169 -100 178 3 4 35 -35 71 -86 35 -51
78 -107 95 -126z m-273 -16 c67 -74 127 -132 132 -129 7 4 8 33 4 78 l-6 71
20 -33 c11 -18 38 -67 59 -110 38 -76 74 -121 84 -105 3 4 8 28 13 53 l8 45 7
-45 c11 -72 -5 -120 -42 -120 -10 0 -39 10 -65 23 -36 17 -74 55 -173 174
-110 132 -183 233 -168 233 3 0 60 -61 127 -135z"/>
<path d="M12107 9878 c14 -39 8 -150 -12 -213 -15 -49 -31 -72 -83 -124 l-65
-64 53 29 c29 16 74 48 99 70 l46 42 -1 98 c0 101 -16 184 -35 184 -6 0 -7 -8
-2 -22z"/>
<path d="M11957 9746 c-6 -66 -30 -132 -61 -171 -14 -19 -15 -17 -16 37 0 55
-15 108 -30 108 -4 0 -10 -17 -14 -37 -12 -80 -71 -179 -156 -264 -59 -59 -79
-85 -75 -99 4 -12 -5 -28 -25 -49 -39 -39 -36 -65 8 -69 18 -2 32 1 32 7 0 6
-11 11 -25 11 -33 0 -31 8 6 48 21 22 38 32 50 29 16 -4 18 -1 13 18 -8 31 5
52 81 137 67 74 104 149 106 211 0 31 1 31 12 9 15 -32 -6 -154 -33 -192 -26
-36 -90 -150 -90 -158 0 -4 5 1 11 11 8 13 18 17 34 13 15 -4 29 0 39 10 20
20 20 38 0 59 -15 14 -13 20 24 68 24 32 67 69 111 97 39 25 71 49 71 53 0 4
-8 3 -18 -2 -16 -8 -17 -3 -14 63 3 59 1 75 -15 95 l-20 24 -6 -67z m-157
-366 c0 -5 -5 -10 -11 -10 -5 0 -7 5 -4 10 3 6 8 10 11 10 2 0 4 -4 4 -10z"/>
<path d="M11326 9615 c-11 -8 -15 -15 -9 -15 6 0 16 7 23 15 16 19 11 19 -14
0z"/>
<path d="M11379 9583 c-13 -16 -12 -17 4 -4 9 7 17 15 17 17 0 8 -8 3 -21 -13z"/>
<path d="M11179 9553 c-13 -16 -12 -17 4 -4 9 7 17 15 17 17 0 8 -8 3 -21 -13z"/>
<path d="M11288 9563 c7 -3 16 -2 19 1 4 3 -2 6 -13 5 -11 0 -14 -3 -6 -6z"/>
<path d="M11099 9483 l-24 -28 28 24 c15 14 27 26 27 28 0 8 -8 1 -31 -24z"/>
<path d="M11461 9357 c-8 -10 -7 -14 2 -14 8 0 14 6 14 14 0 7 -1 13 -2 13 -2
0 -8 -6 -14 -13z"/>
<path d="M11278 9283 c7 -3 16 -2 19 1 4 3 -2 6 -13 5 -11 0 -14 -3 -6 -6z"/>
<path d="M11083 9195 c0 -33 2 -45 4 -27 2 18 2 45 0 60 -2 15 -4 0 -4 -33z"/>
<path d="M11251 9194 c0 -11 3 -14 6 -6 3 7 2 16 -1 19 -3 4 -6 -2 -5 -13z"/>
<path d="M11239 9156 c-14 -10 -43 -75 -37 -82 2 -1 22 14 46 34 39 34 41 38
24 48 -13 9 -22 9 -33 0z"/>
<path d="M12143 9153 c10 -17 -33 -49 -123 -92 -122 -58 -133 -59 -159 -22
-21 29 -21 31 -4 37 33 9 124 57 119 61 -3 3 -41 -7 -86 -22 -60 -20 -85 -24
-93 -16 -6 6 -29 10 -51 9 l-41 -1 44 -6 c25 -3 46 -10 48 -16 1 -5 -17 -23
-42 -38 -25 -16 -48 -33 -51 -39 -3 -5 19 7 50 28 54 35 58 36 74 20 15 -16
16 -18 1 -26 -9 -5 -27 -19 -40 -30 -16 -14 -9 -12 19 6 l43 27 21 -21 c14
-14 26 -18 37 -12 9 4 64 31 123 59 104 50 142 81 116 97 -6 4 -8 3 -5 -3z"/>
<path d="M11310 9136 c0 -2 6 -18 13 -35 l13 -31 34 35 34 35 -47 0 c-26 0
-47 -2 -47 -4z"/>
<path d="M11640 9074 c-35 -30 -60 -73 -60 -104 0 -25 25 -77 52 -106 17 -19
18 -22 2 -28 -21 -8 -80 8 -121 33 -44 28 -86 94 -94 150 -6 45 -6 45 -8 9 -1
-44 -8 -46 -45 -17 -15 12 -29 19 -31 17 -2 -2 -7 -23 -11 -46 l-7 -42 57 0
c52 0 59 -3 88 -35 33 -38 97 -79 138 -88 14 -4 42 2 65 12 l40 19 -27 10
c-41 17 -91 90 -84 124 8 42 35 77 75 98 20 11 29 19 19 20 -9 0 -30 -12 -48
-26z"/>
<path d="M12226 9055 c-9 -26 -7 -32 5 -12 6 10 9 21 6 23 -2 3 -7 -2 -11 -11z"/>
<path d="M12536 9027 c-4 -23 -15 -57 -26 -75 -23 -38 -9 -42 25 -8 54 54 35
-32 -22 -102 l-38 -47 36 23 c20 12 39 22 42 22 16 0 -24 -162 -55 -223 -10
-21 -17 -41 -15 -44 3 -2 23 11 45 31 71 64 122 190 122 301 0 36 -4 47 -22
56 -29 15 -45 35 -64 77 -8 17 -16 32 -18 32 -2 0 -7 -19 -10 -43z"/>
<path d="M11186 9005 c-19 -45 -15 -52 29 -61 55 -10 58 -2 21 50 l-35 49 -15
-38z"/>
<path d="M12201 8997 c-8 -12 -21 -32 -29 -44 -8 -13 -12 -23 -9 -23 7 0 59
81 55 85 -2 2 -10 -6 -17 -18z"/>
<path d="M11843 8939 c-24 -17 -43 -32 -43 -35 0 -3 20 9 45 26 25 17 45 33
45 35 0 7 -2 6 -47 -26z"/>
<path d="M11926 8937 c3 -10 9 -15 12 -12 3 3 0 11 -7 18 -10 9 -11 8 -5 -6z"/>
<path d="M11730 8865 c-7 -24 -16 -42 -21 -39 -5 3 -9 -6 -9 -19 0 -13 -12
-42 -26 -63 -14 -21 -20 -33 -13 -26 7 6 24 12 36 12 20 0 22 3 13 19 -13 25
-13 31 0 31 6 0 16 -11 22 -25 14 -32 21 -31 60 5 l33 29 -57 1 c-32 0 -58 5
-58 10 0 6 23 10 51 10 44 0 57 5 107 43 31 24 64 47 72 50 10 4 11 6 2 6 -7
1 -38 -18 -69 -41 l-55 -42 -20 24 c-10 13 -16 30 -14 37 3 8 1 11 -5 8 -5 -4
-16 -2 -23 4 -11 9 -16 2 -26 -34z"/>
<path d="M11911 8809 c-19 -11 -42 -18 -53 -16 -11 3 -18 0 -18 -8 0 -7 -18
-29 -41 -48 -37 -32 -40 -37 -28 -59 6 -12 25 -35 42 -49 44 -37 29 -49 -63
-49 l-79 0 14 -46 c23 -77 27 -77 118 15 45 46 75 80 67 75 -8 -4 0 7 18 24
19 17 31 36 27 42 -3 5 -1 10 6 10 7 0 10 3 6 6 -3 4 0 13 8 21 20 19 19 37
-1 29 -9 -3 -25 1 -36 8 -20 15 -20 15 16 36 20 12 36 24 36 26 0 6 -3 5 -39
-17z"/>
<path d="M11951 8784 c0 -11 3 -14 6 -6 3 7 2 16 -1 19 -3 4 -6 -2 -5 -13z"/>
<path d="M11605 8664 c-22 -19 -66 -53 -97 -75 -32 -22 -58 -44 -58 -50 0 -11
59 -49 78 -49 8 0 12 16 12 49 0 33 6 56 20 74 18 23 24 25 51 15 37 -13 41
-9 37 35 l-3 35 -40 -34z"/>
<path d="M11383 8499 c-29 -22 -53 -42 -53 -44 0 -5 84 -55 92 -55 2 0 3 25 0
55 -3 35 0 60 8 70 19 23 9 18 -47 -26z"/>
<path d="M10860 8451 c0 -6 15 -18 33 -26 27 -13 29 -14 12 -1 -11 9 -26 20
-32 26 -9 7 -13 7 -13 1z"/>
<path d="M11577 8427 c13 -68 14 -68 70 -18 l53 46 -65 2 -64 2 6 -32z"/>
<path d="M11277 8400 c-31 -37 -74 -116 -58 -105 6 3 11 2 11 -4 0 -14 53 -41
80 -41 21 0 22 3 15 58 -3 31 -10 72 -13 91 l-7 34 -28 -33z"/>
<path d="M10935 8403 c6 -5 33 -26 60 -47 l50 -38 -40 37 c-22 20 -49 41 -60
47 -11 6 -15 6 -10 1z"/>
<path d="M11460 8358 c0 -5 7 -25 15 -44 12 -30 13 -39 1 -55 -7 -10 -15 -16
-18 -13 -3 3 -25 0 -48 -6 l-42 -11 21 -23 c20 -21 20 -23 4 -46 -9 -14 -27
-37 -41 -52 -22 -24 -23 -28 -9 -34 25 -9 21 -58 -9 -93 l-25 -30 25 -7 c15
-4 28 -15 31 -28 3 -11 9 -43 15 -69 14 -67 42 -118 84 -155 19 -16 32 -33 28
-37 -4 -4 35 -5 87 -1 52 3 123 6 158 6 35 0 62 4 59 9 -3 4 -16 6 -30 4 -33
-7 -126 79 -127 117 0 14 -3 19 -6 12 -9 -23 -43 17 -44 52 -1 28 -2 29 -8 7
-6 -22 -7 -22 -21 -7 -11 14 -11 19 -1 25 9 6 5 10 -12 15 -71 17 -127 104
-127 196 0 72 24 121 93 196 l56 61 -54 10 c-30 5 -55 6 -55 1z"/>
<path d="M10821 8307 c2 -1 13 -9 24 -17 19 -14 19 -14 6 3 -7 9 -18 17 -24
17 -6 0 -8 -1 -6 -3z"/>
<path d="M11187 8214 c-10 -61 -8 -195 4 -256 l11 -56 29 17 c16 9 29 19 29
22 0 4 -16 19 -35 33 -50 38 -46 61 15 87 l49 21 -24 32 c-13 18 -35 56 -48
86 l-24 54 -6 -40z"/>
<path d="M10912 8195 c0 -16 2 -22 5 -12 2 9 2 23 0 30 -3 6 -5 -1 -5 -18z"/>
<path d="M11083 8180 c0 -25 2 -35 4 -22 2 12 2 32 0 45 -2 12 -4 2 -4 -23z"/>
<path d="M11072 8110 c0 -14 2 -19 5 -12 2 6 2 18 0 25 -3 6 -5 1 -5 -13z"/>
<path d="M10866 8065 c-9 -26 -7 -32 5 -12 6 10 9 21 6 23 -2 3 -7 -2 -11 -11z"/>
<path d="M11013 7900 c0 -25 2 -35 4 -22 2 12 2 32 0 45 -2 12 -4 2 -4 -23z"/>
<path d="M10823 7875 c0 -27 2 -38 4 -22 2 15 2 37 0 50 -2 12 -4 0 -4 -28z"/>
<path d="M11742 7893 c12 -3 18 -17 20 -51 l3 -47 5 53 c5 50 4 52 -20 51 -16
-1 -19 -3 -8 -6z"/>
<path d="M11893 7893 c9 -2 17 -12 17 -21 0 -14 2 -15 10 -2 10 16 -5 30 -30
29 -11 -1 -10 -3 3 -6z"/>
<path d="M11210 7887 c0 -18 41 -85 75 -122 21 -22 32 -32 25 -23 -7 10 -9 29
-6 43 6 22 2 27 -25 37 -17 6 -39 25 -50 42 -10 17 -19 27 -19 23z"/>
<path d="M11673 7883 c9 -2 23 -2 30 0 6 3 -1 5 -18 5 -16 0 -22 -2 -12 -5z"/>
<path d="M11833 7850 c0 -25 2 -35 4 -22 2 12 2 32 0 45 -2 12 -4 2 -4 -23z"/>
<path d="M11642 7860 c0 -14 2 -19 5 -12 2 6 2 18 0 25 -3 6 -5 1 -5 -13z"/>
<path d="M11912 7825 c0 -16 2 -22 5 -12 2 9 2 23 0 30 -3 6 -5 -1 -5 -18z"/>
<path d="M11996 7835 c4 -8 11 -15 16 -15 6 0 5 6 -2 15 -7 8 -14 15 -16 15
-2 0 -1 -7 2 -15z"/>
<path d="M11070 7788 c41 -45 50 -53 50 -45 0 2 -21 23 -47 47 l-48 45 45 -47z"/>
<path d="M10831 7794 c0 -11 3 -14 6 -6 3 7 2 16 -1 19 -3 4 -6 -2 -5 -13z"/>
<path d="M11990 7800 c0 -5 -27 -38 -60 -73 -33 -36 -60 -67 -60 -71 0 -3 29
26 65 65 58 63 75 89 60 89 -3 0 -5 -4 -5 -10z"/>
<path d="M11869 7720 c-28 -54 -33 -70 -22 -74 8 -3 11 -2 8 4 -3 5 8 37 25
71 17 33 30 63 28 64 -2 2 -19 -27 -39 -65z"/>
<path d="M11692 7760 c0 -14 2 -19 5 -12 2 6 2 18 0 25 -3 6 -5 1 -5 -13z"/>
<path d="M11752 7760 c0 -14 2 -19 5 -12 2 6 2 18 0 25 -3 6 -5 1 -5 -13z"/>
<path d="M10006 7706 c-37 -41 -60 -45 -76 -16 -28 53 -82 -14 -88 -110 -6
-90 -17 -101 -58 -56 -38 42 -47 43 -74 16 -32 -32 -26 -80 20 -151 59 -91 53
-114 -19 -73 -55 31 -89 31 -100 2 -4 -12 -6 -30 -3 -40 5 -22 72 -81 124
-110 21 -12 41 -31 44 -42 8 -28 41 -64 84 -91 37 -24 82 -102 107 -185 l13
-45 -5 48 c-3 27 -18 80 -35 119 -23 57 -27 75 -18 92 9 17 8 19 -3 9 -20 -20
-45 -15 -76 13 l-28 25 33 -16 c19 -9 35 -15 37 -13 1 2 0 18 -2 36 -4 24 -14
37 -37 49 -46 24 -137 85 -133 89 2 3 30 -9 62 -26 31 -16 70 -30 86 -30 28 0
109 34 109 46 0 3 -5 2 -12 -2 -6 -4 -28 -10 -49 -14 -42 -8 -49 -1 -49 52 0
21 -11 43 -35 69 -19 21 -44 57 -56 81 l-21 43 61 -60 61 -59 33 17 c18 10 46
29 62 43 l30 24 -59 -25 c-32 -14 -60 -25 -62 -25 -10 0 -2 53 13 85 14 29 14
39 4 58 -9 18 -10 36 -3 68 l9 44 8 -42 c4 -24 12 -43 17 -43 17 0 147 134
150 155 5 34 -30 29 -66 -9z"/>
<path d="M10856 7730 c15 -33 56 -80 96 -111 38 -28 36 -26 -13 22 -30 30 -63
65 -73 79 -9 14 -14 18 -10 10z"/>
<path d="M11178 7694 l44 -41 -27 -29 -27 -29 51 -10 c29 -5 56 -17 61 -25 17
-27 11 0 -9 38 -18 35 -54 72 -112 117 -14 11 -5 2 19 -21z"/>
<path d="M11796 7715 c-9 -26 -7 -32 5 -12 6 10 9 21 6 23 -2 3 -7 -2 -11 -11z"/>
<path d="M12028 7709 c-21 -11 -38 -22 -38 -24 0 -3 17 3 38 12 45 21 46 22
41 27 -2 2 -21 -5 -41 -15z"/>
<path d="M15720 7668 c-51 -78 -68 -136 -83 -276 -9 -96 -8 -133 6 -250 16
-124 16 -142 2 -192 -27 -101 -26 -106 4 -32 16 40 35 79 41 87 9 11 9 15 1
15 -14 0 -15 128 -1 222 5 37 24 102 41 145 29 70 32 91 37 211 2 72 2 132 -2
132 -4 0 -24 -28 -46 -62z"/>
<path d="M11741 7704 c0 -11 3 -14 6 -6 3 7 2 16 -1 19 -3 4 -6 -2 -5 -13z"/>
<path d="M11374 7696 c11 -9 24 -16 30 -16 12 0 7 5 -24 19 -24 11 -24 11 -6
-3z"/>
<path d="M12072 7665 c0 -16 2 -22 5 -12 2 9 2 23 0 30 -3 6 -5 -1 -5 -18z"/>
<path d="M11949 7659 l-24 -20 28 17 c15 9 27 18 27 20 0 8 -8 4 -31 -17z"/>
<path d="M11860 7616 c0 -17 -39 -66 -40 -49 0 6 5 15 11 19 8 5 7 10 -4 16
-25 14 -83 -16 -102 -52 -18 -35 -18 -140 1 -140 6 0 32 14 58 31 45 30 47 34
41 66 -5 27 -1 40 19 64 23 27 34 59 21 59 -3 0 -5 -6 -5 -14z"/>
<path d="M11952 7612 c-7 -5 16 -7 50 -4 85 5 96 10 23 11 -33 0 -66 -3 -73
-7z"/>
<path d="M11033 7559 c21 -19 46 -46 55 -61 l18 -27 10 45 11 46 -36 -5 c-25
-3 -45 2 -66 16 -23 15 -22 12 8 -14z"/>
<path d="M15490 7562 c14 -29 16 -88 5 -218 -9 -114 0 -156 45 -207 38 -44 50
-70 51 -109 l1 -33 10 35 c14 47 3 128 -20 154 -36 39 -42 64 -42 173 0 119
-10 170 -41 205 l-20 23 11 -23z"/>
<path d="M12074 7559 c-4 -8 -32 -10 -79 -7 l-71 5 -16 -43 c-10 -28 -12 -46
-5 -53 5 -5 10 -27 11 -49 1 -39 1 -39 56 -54 64 -17 80 -14 111 25 20 26 21
32 9 67 -7 21 -10 57 -7 79 5 42 3 49 -9 30z"/>
<path d="M15887 7541 c-12 -21 -22 -70 -28 -135 -8 -96 -12 -107 -69 -221
l-60 -120 61 65 c33 36 69 82 80 103 24 46 41 168 37 267 l-3 75 -18 -34z"/>
<path d="M10671 7513 c-17 -3 -20 -7 -11 -13 7 -4 9 -13 6 -19 -10 -16 -36
-13 -36 4 0 21 -19 19 -59 -6 -24 -14 -31 -23 -22 -29 7 -4 11 -18 9 -31 -2
-18 -8 -23 -23 -21 -11 2 -23 8 -26 14 -3 5 -18 -5 -34 -23 -16 -19 -23 -35
-16 -37 6 -2 11 -16 11 -31 0 -36 17 -51 56 -51 36 0 61 19 70 55 4 17 15 24
42 29 31 5 40 2 60 -20 49 -56 6 -154 -67 -154 l-32 0 16 -29 c8 -16 31 -43
51 -59 34 -29 35 -31 25 -68 -6 -22 -11 -60 -11 -87 0 -47 0 -47 -27 -41 -25
7 -27 6 -14 -9 7 -10 20 -17 28 -17 7 0 23 -21 34 -47 11 -27 41 -74 65 -105
l45 -58 -28 0 -28 -1 28 -15 c16 -9 35 -13 44 -10 8 3 28 -3 44 -14 16 -12 56
-33 89 -49 l61 -27 -21 -27 c-27 -34 -7 -36 24 -2 22 24 27 25 67 16 24 -6 63
-11 85 -11 40 0 42 -1 47 -38 4 -20 20 -53 36 -72 l29 -35 -26 -27 c-29 -31
-17 -36 33 -14 27 12 35 10 85 -15 30 -15 77 -33 103 -40 44 -11 48 -14 42
-36 -5 -21 -4 -23 14 -14 28 16 33 14 26 -9 -9 -27 7 -25 34 4 20 22 32 24
139 28 100 3 125 8 176 31 69 32 76 33 76 9 0 -40 66 -122 140 -174 24 -17 24
-18 7 -32 -25 -19 -7 -28 24 -12 21 11 40 10 115 -5 49 -10 99 -19 112 -19 24
0 28 -10 10 -28 -21 -21 0 -25 29 -4 23 16 48 21 116 24 48 2 87 2 87 0 0 -2
-5 -12 -10 -23 -14 -25 2 -24 26 2 l19 21 6 -24 c6 -22 7 -21 24 15 10 20 24
37 30 37 6 0 33 14 59 31 27 16 49 29 51 27 1 -2 -1 -30 -6 -63 -4 -33 -8 -86
-8 -117 l-1 -58 -225 0 c-207 0 -227 2 -257 20 -40 24 -59 25 -98 5 -32 -17
-50 -44 -60 -90 -5 -26 -10 -30 -36 -27 -47 5 -111 49 -153 105 -61 82 -64 92
-45 128 44 86 -49 179 -134 135 -39 -20 -52 -44 -52 -94 0 -39 14 -60 64 -95
28 -20 14 -77 -20 -77 -37 0 -160 50 -342 140 -90 44 -166 80 -168 80 -37 0
235 -141 392 -204 129 -51 164 -47 164 19 0 27 5 33 34 42 32 10 34 9 50 -24
38 -79 151 -173 209 -173 16 0 34 -12 50 -33 25 -33 25 -33 6 -67 -25 -48 -25
-130 1 -180 11 -21 24 -42 30 -45 6 -4 0 -19 -16 -38 -14 -17 -30 -42 -35 -55
-8 -21 -14 -24 -41 -18 -63 13 -228 19 -228 9 0 -6 47 -13 108 -17 128 -8 162
-14 162 -30 0 -23 57 -67 95 -73 22 -4 61 -23 89 -44 27 -21 73 -44 100 -51
69 -18 683 -18 741 -1 42 13 162 87 205 128 41 38 124 74 242 104 l112 29 29
-24 c58 -49 156 -17 170 56 20 100 -102 163 -175 90 -16 -16 -33 -30 -36 -30
-18 0 -81 62 -76 74 7 18 117 67 212 95 39 12 72 27 72 32 0 6 -6 9 -12 7 -7
-3 -56 -19 -108 -37 -135 -45 -175 -69 -175 -106 0 -25 8 -35 47 -60 35 -22
47 -36 47 -55 1 -24 -5 -27 -106 -52 -59 -15 -135 -41 -171 -58 -46 -21 -62
-26 -58 -15 9 25 -5 73 -30 100 l-23 25 19 42 c21 47 26 112 10 153 -7 17 -6
31 1 43 9 14 24 17 100 14 49 -2 122 1 162 8 83 12 297 68 312 81 16 15 -19
10 -111 -17 -138 -40 -227 -54 -340 -54 l-104 0 0 41 c0 101 -104 164 -171
103 -12 -11 -27 -14 -45 -10 -24 6 -25 8 -11 29 8 12 42 39 77 59 61 35 90 44
283 84 l78 16 75 -33 c62 -27 78 -40 97 -73 30 -53 52 -61 31 -10 -15 37 -15
37 8 30 138 -40 231 -45 342 -16 78 20 78 20 103 0 14 -11 35 -20 47 -20 17 0
15 4 -13 21 -18 11 -30 23 -27 26 4 4 12 1 18 -5 7 -7 28 -12 48 -12 l35 1
-32 14 c-18 8 -33 18 -33 23 0 5 19 18 42 28 23 10 68 38 99 60 39 30 63 40
80 37 13 -2 33 3 44 11 19 15 18 15 -22 16 -42 0 -43 1 -43 33 0 17 -3 48 -5
67 -5 33 -3 37 39 62 44 26 106 99 106 125 0 15 16 18 25 3 15 -24 85 -7 85
21 0 10 8 22 17 28 16 9 16 12 1 44 -14 30 -20 33 -48 29 -30 -4 -32 -3 -25
19 4 13 13 27 19 31 7 5 0 18 -19 38 -33 35 -43 37 -61 13 -12 -17 -13 -17
-20 1 -4 11 -2 21 5 26 8 5 -1 13 -26 23 -32 13 -39 13 -41 1 -2 -8 -10 -14
-18 -14 -15 0 -34 -39 -34 -70 0 -13 9 -22 27 -26 l27 -7 -37 -13 c-53 -18
-89 -46 -121 -93 l-28 -40 -38 24 c-21 13 -50 27 -64 31 -28 7 -33 23 -14 42
9 9 9 12 0 12 -13 0 -56 -38 -63 -56 -2 -6 -24 -24 -49 -42 -25 -17 -57 -41
-71 -52 l-26 -20 5 25 c7 38 -17 31 -34 -10 -8 -19 -13 -38 -12 -42 4 -11
-101 -142 -122 -153 -10 -6 -46 -10 -79 -10 l-61 0 0 74 c0 41 -3 81 -6 90 -5
12 0 16 18 16 33 0 48 -18 48 -57 0 -26 -5 -36 -22 -42 -23 -9 -23 -9 4 -16
43 -11 81 7 102 48 22 46 16 94 -19 136 -41 48 -59 46 -110 -12 -43 -49 -48
-52 -92 -51 -39 1 -50 6 -70 30 -12 16 -23 32 -23 37 0 4 -9 16 -20 27 -23 23
-57 25 -84 5 -20 -15 -55 -11 -68 8 -4 7 -12 6 -22 -2 -10 -9 -29 -11 -52 -8
-32 5 -44 1 -92 -34 -34 -24 -56 -47 -57 -60 -3 -31 -38 -61 -76 -62 -29 -2
-34 2 -42 30 -5 17 -22 44 -38 59 -27 26 -29 26 -54 10 -15 -10 -36 -38 -46
-62 -11 -24 -25 -44 -31 -44 -16 0 -262 131 -266 141 -2 5 -10 2 -19 -6 -19
-19 -37 -19 -53 0 -10 13 -9 15 9 15 36 0 23 41 -18 62 -39 19 -51 17 -31 -7
17 -20 12 -19 -75 15 -42 17 -78 30 -80 30 -3 0 -5 -13 -5 -30 0 -25 -4 -30
-24 -30 -24 0 -62 27 -52 37 3 3 12 -2 21 -11 21 -21 31 -20 40 1 7 19 -26 53
-51 53 -37 0 -163 -43 -199 -68 -55 -38 -85 -100 -85 -177 0 -42 -3 -56 -10
-45 -5 8 -10 38 -10 66 0 97 97 238 187 268 60 20 191 21 268 1 32 -9 109 -43
171 -75 61 -33 119 -60 128 -60 9 0 16 -6 16 -14 0 -16 47 -76 60 -76 4 0 10
9 13 20 5 18 14 20 81 20 73 0 106 15 49 22 -24 3 -28 8 -31 38 -5 63 -21 90
-54 90 -44 0 -97 -26 -110 -54 -6 -15 -14 -26 -18 -26 -3 0 -35 17 -70 38 -51
31 -64 44 -66 67 -2 16 -10 35 -18 44 -15 14 -16 12 -16 -18 0 -39 -23 -38
-28 1 -2 14 -12 34 -22 43 -19 17 -19 16 -13 -19 l6 -36 -44 16 c-24 8 -73 22
-109 30 -51 12 -71 23 -98 52 -29 32 -33 34 -28 14 4 -23 4 -23 -21 -7 -32 22
-40 12 -18 -21 14 -22 15 -28 4 -35 -8 -5 -18 -9 -23 -9 -5 0 -24 -11 -42 -25
-39 -30 -39 -30 -71 -5 -38 30 -47 24 -24 -14 26 -42 26 -45 -5 -80 l-25 -28
-67 64 c-37 36 -80 73 -95 83 -17 11 -27 25 -24 34 3 13 -4 15 -44 13 -43 -4
-52 0 -79 26 -23 24 -30 39 -30 71 0 50 32 86 62 70 10 -6 29 -9 41 -7 14 2
29 -6 40 -19 31 -39 77 -24 77 24 0 13 6 23 13 23 6 0 -1 12 -18 27 -17 15
-31 21 -33 14 -2 -6 -11 -11 -19 -11 -11 0 -14 6 -10 21 4 16 -1 24 -26 34
-30 13 -33 12 -53 -12 -21 -27 -50 -24 -40 3 4 11 -4 14 -34 14 -29 0 -38 -4
-34 -13 3 -8 -2 -20 -11 -27 -21 -17 -19 -39 5 -65 20 -21 20 -23 3 -63 l-18
-42 -85 6 c-67 5 -90 11 -109 28 l-24 21 5 -28 c5 -25 1 -29 -40 -48 -26 -11
-54 -27 -64 -36 -17 -15 -18 -14 -18 15 0 16 -9 59 -20 93 -10 35 -16 68 -11
73 4 6 11 19 14 28 5 15 4 16 -14 5 -18 -10 -23 -9 -37 13 -31 46 -125 140
-169 168 -29 18 -43 34 -43 48 0 12 -9 32 -21 45 -11 13 -18 18 -14 11 4 -7 4
-24 1 -37 -6 -21 -9 -23 -32 -15 -14 6 -48 10 -75 10 -45 0 -49 2 -49 24 0 54
-52 142 -102 174 l-30 19 26 7 c23 6 26 12 26 47 0 27 -5 42 -16 46 -8 3 -13
12 -10 19 6 14 -13 16 -63 7z m72 -50 c6 -11 -10 -53 -20 -53 -19 1 -45 30
-40 45 6 15 52 21 60 8z m-93 -42 c0 -49 -42 -70 -70 -36 -10 13 -10 19 5 35
24 26 65 27 65 1z m-90 -66 c20 -24 3 -57 -28 -53 -30 3 -41 30 -22 53 16 19
34 19 50 0z m445 -229 c91 -42 147 -96 194 -184 76 -147 109 -260 81 -277 -6
-4 -21 -27 -34 -53 l-24 -47 1 65 c1 36 -7 97 -17 136 -17 63 -21 70 -41 67
-26 -6 -50 20 -40 44 6 16 8 16 15 -3 15 -38 30 -38 30 0 0 22 -7 40 -18 48
-10 7 -28 29 -40 48 -48 80 -150 128 -251 118 -34 -3 -40 -1 -35 12 3 8 8 23
11 32 10 34 86 32 168 -6z m-265 -87 c-7 -11 -14 -19 -16 -16 -7 7 7 37 17 37
6 0 5 -9 -1 -21z m156 -75 c-7 -18 -47 -15 -53 3 -3 7 3 10 15 6 14 -3 21 2
27 19 6 20 8 20 12 5 3 -10 2 -25 -1 -33z m118 34 c5 -10 7 -10 12 0 9 18 24
14 24 -7 0 -10 -7 -22 -16 -25 -19 -7 -44 10 -44 30 0 17 16 18 24 2z m716
-78 c0 -25 -32 -44 -48 -28 -7 7 -12 20 -12 30 0 13 8 18 30 18 23 0 30 -4 30
-20z m74 10 c32 -12 33 -33 2 -48 -17 -7 -27 -7 -35 1 -12 12 -15 40 -4 50 8
9 7 9 37 -3z m94 -61 c3 -17 -23 -33 -39 -23 -5 3 -9 14 -9 25 0 15 6 20 22
17 13 -2 24 -10 26 -19z m-880 -1 c31 -31 -2 -80 -41 -59 -12 6 -14 9 -5 7 26
-8 31 11 9 31 -11 9 -18 20 -15 25 8 12 38 10 52 -4z m-143 -18 c3 -5 1 -19
-5 -30 -13 -25 -53 -24 -58 2 -2 12 2 15 18 11 16 -4 19 -2 14 11 -7 18 20 23
31 6z m734 -96 c30 -6 31 -9 31 -56 l0 -49 -45 7 c-41 6 -45 5 -45 -15 0 -16
-6 -21 -25 -21 -14 0 -25 4 -25 10 0 5 6 7 14 4 26 -10 27 16 2 41 -29 29 -48
32 -44 8 2 -13 -7 -19 -39 -24 -46 -8 -93 -30 -110 -51 -25 -30 -34 -101 -20
-155 l14 -52 -29 20 c-36 26 -48 49 -48 94 0 95 79 192 189 231 39 14 129 18
180 8z m-429 -64 c0 -31 -58 -50 -68 -22 -2 7 2 11 9 10 8 -2 15 7 17 19 3 19
7 21 23 13 10 -6 19 -15 19 -20z m-153 -6 c8 -21 -30 -59 -51 -51 -9 4 -16 11
-16 16 0 6 7 8 16 4 14 -5 16 -1 12 20 -4 22 -1 27 14 27 10 0 21 -7 25 -16z
m3567 -30 c23 -9 20 -41 -4 -49 -25 -8 -40 1 -40 24 0 29 14 37 44 25z m-2674
-79 c16 -16 36 -47 45 -68 25 -60 -1 -58 -100 9 l-84 57 27 32 c26 31 28 32
55 16 15 -9 41 -29 57 -46z m2755 27 c6 -4 16 -15 24 -24 17 -23 -1 -48 -35
-48 -21 0 -24 5 -24 40 0 39 12 50 35 32z m-3226 -21 c18 -12 8 -37 -17 -43
-15 -4 -19 -2 -15 8 3 8 0 21 -7 29 -10 12 -9 15 6 15 11 0 25 -4 33 -9z
m3141 -66 c37 -19 50 -43 50 -92 0 -101 -120 -148 -184 -72 -76 89 30 218 134
164z m-2933 -41 c7 -20 -15 -44 -41 -43 -18 1 -18 2 -3 6 19 5 19 15 2 57 -7
16 -6 17 14 7 12 -7 25 -19 28 -27z m3098 1 c0 -25 -4 -30 -25 -30 -16 0 -26
6 -28 18 -6 30 6 49 30 45 18 -2 23 -9 23 -33z m-422 -22 l32 -16 -25 -7 c-46
-13 -86 -38 -123 -79 -20 -23 -39 -41 -42 -41 -3 0 -5 12 -5 28 l-1 27 -24
-28 c-32 -36 -32 -51 0 -43 28 7 30 4 14 -25 -6 -12 -17 -18 -25 -15 -8 3 -13
2 -10 -2 3 -5 -18 -32 -47 -60 -38 -37 -65 -54 -99 -63 -27 -6 -48 -16 -48
-22 0 -20 -54 -67 -77 -67 -26 0 -58 42 -49 65 4 12 -3 15 -36 15 -40 0 -40 0
-26 22 14 20 24 23 89 23 85 0 106 11 160 87 66 92 228 218 281 218 16 0 43
-8 61 -17z m-2449 -9 c12 -32 6 -44 -23 -44 -17 0 -33 5 -36 10 -3 6 3 10 14
10 28 0 27 14 -1 28 -22 10 -21 11 8 11 20 1 34 -5 38 -15z m-390 -20 c34 -34
3 -85 -37 -62 -17 9 -17 11 -2 29 10 10 15 25 12 34 -8 20 7 19 27 -1z m755
-8 c18 -21 -3 -56 -34 -56 -13 0 -27 5 -30 10 -3 6 3 10 14 10 23 0 28 19 9
38 -9 9 -7 12 9 12 11 0 26 -6 32 -14z m1314 -9 c18 -8 38 -26 46 -41 8 -15
36 -42 63 -61 50 -37 56 -50 35 -79 -12 -17 -15 -16 -45 9 -30 25 -32 26 -32
6 0 -22 -27 -41 -59 -41 -25 0 -43 31 -39 67 3 24 -2 29 -33 37 -51 13 -84 2
-99 -33 -16 -40 -81 -55 -66 -15 11 29 -43 13 -101 -30 -42 -30 -65 -56 -76
-83 -19 -47 -33 -60 -72 -65 -25 -2 -38 -16 -82 -86 -52 -84 -74 -133 -89
-206 -13 -56 -31 -56 -55 0 -17 38 -20 60 -16 108 6 61 92 346 104 346 4 0 21
-13 38 -30 17 -16 42 -31 55 -32 22 -3 25 0 22 25 -5 44 13 57 79 57 77 0 106
12 114 48 12 55 66 89 158 101 94 13 115 12 150 -2z m-1071 -42 c13 -29 -3
-55 -34 -55 -17 0 -18 2 -8 15 10 12 10 21 2 40 -10 22 -9 25 8 25 12 0 25
-10 32 -25z m-747 -25 c0 -16 -6 -26 -19 -28 -12 -3 -16 0 -11 8 4 7 2 16 -5
20 -17 10 -3 32 18 28 11 -2 17 -13 17 -28z m949 -23 c13 -9 16 -20 12 -35 -9
-27 -44 -38 -63 -20 -12 13 -11 15 9 14 31 -1 30 25 -2 41 l-25 13 26 0 c14 0
33 -6 43 -13z m-376 -80 c5 -25 -16 -47 -46 -47 -24 0 -24 1 -8 19 17 19 7 39
-14 26 -5 -3 -10 -2 -10 4 0 26 73 25 78 -2z m1935 -7 c-5 -21 11 -28 22 -10
7 12 25 13 25 3 -1 -23 -20 -35 -44 -29 -25 6 -35 33 -19 49 13 13 21 7 16
-13z m-1695 -19 c22 -14 10 -56 -17 -59 -13 -2 -28 1 -34 7 -8 8 -3 11 16 11
15 0 27 5 27 10 0 6 -14 10 -31 10 -27 0 -30 2 -19 15 14 17 38 19 58 6z
m1542 -76 c-7 -9 -15 -13 -17 -11 -7 7 7 26 19 26 6 0 6 -6 -2 -15z m-2198
-12 c38 -34 8 -113 -44 -113 -29 0 -68 38 -68 67 0 52 72 82 112 46z m1368 -3
c0 -23 10 -26 28 -8 9 9 15 9 24 0 15 -15 -6 -42 -33 -42 -21 0 -54 44 -44 60
10 17 25 11 25 -10z m805 -30 c8 0 19 8 24 18 9 15 10 15 11 -4 0 -12 -7 -27
-15 -34 -13 -10 -19 -10 -35 5 -11 10 -20 25 -20 34 1 14 2 13 11 -1 5 -10 16
-18 24 -18z m-614 -3 c-17 -17 -13 -27 11 -27 21 0 21 -1 5 -17 -13 -14 -21
-15 -35 -7 -24 16 -27 45 -7 61 21 14 42 6 26 -10z m762 -17 c-6 -23 15 -28
35 -8 20 20 26 -1 7 -22 -32 -35 -88 -8 -72 34 9 24 36 21 30 -4z m-1193 -160
c0 -22 12 -25 41 -10 23 13 25 3 2 -22 -17 -18 -39 -23 -67 -12 -19 7 -21 35
-4 52 18 18 28 15 28 -8z m-689 -21 c25 -25 23 -86 -4 -103 -15 -9 -22 -7 -37
12 -10 12 -21 18 -25 13 -7 -13 30 -51 50 -51 27 0 55 38 55 75 0 56 36 48
100 -21 66 -73 95 -132 126 -256 25 -102 63 -189 117 -267 l30 -44 -99 7
c-118 8 -215 24 -231 38 -6 5 -15 22 -18 38 -14 65 -125 84 -125 21 0 -12 3
-11 18 2 27 24 59 21 78 -8 21 -32 11 -60 -30 -79 -53 -25 -93 -21 -127 13
-41 41 -37 74 18 132 l24 26 -32 51 c-40 64 -43 130 -9 190 l23 41 -27 31
c-37 45 -33 83 17 138 27 29 79 30 108 1z m288 -76 c55 -74 73 -110 126 -250
39 -102 78 -177 146 -280 l21 -33 -75 0 -74 0 -36 53 c-59 89 -87 154 -113
259 -29 117 -57 176 -119 253 l-45 55 63 0 64 0 42 -57z m191 -37 c0 -90 1
-95 26 -115 18 -14 35 -46 51 -94 13 -39 54 -127 89 -194 l65 -123 -53 0 -53
0 -60 93 c-35 54 -80 145 -110 222 -61 154 -76 183 -127 253 l-39 52 106 0
105 0 0 -94z m549 58 c42 -35 49 -81 21 -137 -18 -35 -20 -48 -11 -65 19 -36
13 -105 -14 -155 -24 -47 -24 -47 -4 -58 28 -14 52 -75 44 -108 -4 -14 -16
-36 -27 -48 -45 -48 -148 -15 -148 46 0 59 72 80 86 25 3 -13 10 -24 15 -24
23 0 -1 54 -31 70 -29 16 -64 -3 -95 -53 -33 -51 -49 -63 -97 -72 l-34 -6 -62
114 c-51 93 -112 232 -112 252 0 3 53 5 119 5 l118 0 5 45 c6 47 46 137 64
142 6 2 14 -10 17 -26 10 -49 86 -55 95 -7 2 9 -1 16 -7 16 -6 0 -11 -7 -11
-16 0 -11 -8 -14 -27 -12 -23 2 -29 8 -31 35 -6 61 72 84 127 37z m535 -335
c33 -26 34 -62 1 -94 -27 -28 -37 -30 -68 -14 -30 16 -37 28 -37 66 0 22 7 37
22 47 30 21 50 20 82 -5z m-1443 -281 c21 -7 158 -13 366 -15 323 -5 334 -4
376 16 40 19 47 20 77 7 l33 -13 -46 -28 c-65 -38 -147 -46 -442 -47 -325 0
-388 10 -463 76 l-23 20 23 18 c22 16 24 16 44 -3 11 -11 36 -25 55 -31z"/>
<path d="M13873 6130 c-27 -11 -49 -48 -35 -62 6 -6 21 5 41 31 33 42 32 46
-6 31z"/>
<path d="M13371 6341 c-18 -17 -29 -35 -26 -41 8 -13 40 12 57 43 16 31 3 29
-31 -2z"/>
<path d="M13575 6270 c-28 -29 -29 -48 -3 -37 16 6 53 67 40 67 -4 0 -21 -13
-37 -30z"/>
<path d="M13112 6177 c-33 -34 -42 -67 -19 -67 15 0 60 75 55 91 -2 5 -18 -5
-36 -24z"/>
<path d="M12927 6131 c-8 -37 8 -70 26 -52 7 7 7 14 0 23 -6 7 -13 24 -15 38
-3 23 -4 22 -11 -9z"/>
<path d="M11274 7433 c-32 -67 -31 -72 17 -48 16 9 35 13 41 9 7 -5 8 -3 3 6
-4 7 -13 31 -19 54 l-11 41 -31 -62z"/>
<path d="M11122 7415 c-1 -5 5 -37 12 -70 8 -33 14 -53 15 -44 1 9 10 24 21
34 26 24 25 28 -9 43 -17 7 -32 21 -34 30 -3 9 -5 13 -5 7z"/>
<path d="M11337 7347 c-3 -18 -9 -41 -13 -52 -6 -17 -3 -16 22 6 16 15 34 28
40 30 6 2 -1 14 -16 26 l-27 22 -6 -32z"/>
<path d="M11414 7303 c-3 -16 -10 -43 -14 -60 -10 -41 -4 -41 43 -2 41 34 47
63 18 79 -30 16 -40 12 -47 -17z"/>
<path d="M11747 7265 c-15 -14 -35 -25 -43 -25 -20 0 -107 -50 -117 -68 -5 -7
-18 -12 -30 -11 -12 2 -40 -9 -63 -24 -23 -15 -70 -34 -105 -42 l-64 -15 74 5
c52 3 90 12 124 29 45 22 53 23 71 10 28 -19 65 -18 102 5 17 10 58 29 92 41
l62 23 -24 28 c-14 16 -27 38 -31 49 -8 25 -14 25 -48 -5z"/>
<path d="M11150 7257 c1 -16 38 -97 45 -97 3 0 4 3 3 8 -1 4 13 22 31 41 36
39 32 45 -36 54 -29 3 -43 1 -43 -6z"/>
<path d="M11271 7149 c-24 -5 -48 -6 -54 -2 -6 3 -7 1 -3 -6 8 -13 80 -51 96
-51 6 0 9 4 5 9 -3 5 -1 12 5 16 5 3 15 15 20 26 12 22 5 23 -69 8z"/>
<path d="M15606 6814 c-4 -14 -5 -28 -3 -31 3 -2 8 8 11 23 4 14 5 28 3 31 -3
2 -8 -8 -11 -23z"/>
<path d="M15534 6712 c-77 -56 -222 -308 -258 -449 -9 -34 -19 -90 -22 -125
l-5 -63 23 30 c12 17 42 51 65 76 50 54 77 112 128 274 20 66 55 155 77 198
21 44 37 81 35 83 -2 2 -21 -9 -43 -24z"/>
<path d="M15374 6675 c-127 -64 -224 -173 -246 -277 -11 -51 -9 -66 15 -162
15 -58 30 -143 33 -191 4 -47 9 -83 12 -81 2 3 7 99 11 214 7 200 8 211 34
264 15 31 65 101 112 157 46 55 83 101 82 101 -2 0 -25 -11 -53 -25z"/>
<path d="M10003 6641 c6 -29 81 -151 93 -151 3 0 16 23 29 51 20 43 24 47 27
28 4 -31 -13 -112 -26 -122 -6 -4 -31 -5 -56 -3 -41 5 -40 4 20 -14 46 -14 71
-28 85 -47 11 -15 30 -39 41 -52 l21 -25 28 85 c49 153 60 139 24 -34 -11 -56
-22 -104 -24 -106 -3 -2 -37 1 -76 8 -40 6 -73 10 -76 8 -2 -2 35 -14 82 -27
47 -13 85 -26 85 -29 1 -3 11 -19 24 -35 l24 -29 36 54 c20 30 36 47 36 39 -1
-22 -39 -103 -53 -112 -7 -4 -41 -8 -77 -9 -75 -1 -59 -13 32 -24 49 -7 58
-11 68 -35 6 -16 23 -39 37 -52 25 -22 25 -22 14 -1 -18 35 -13 111 14 208 14
50 25 103 25 120 l0 29 -38 -37 c-51 -50 -66 -49 -58 6 20 131 19 171 -4 224
-38 89 -80 80 -120 -28 -32 -85 -52 -80 -49 15 2 56 -1 80 -14 100 -10 14 -22
26 -27 26 -6 0 -20 -20 -32 -45 -12 -25 -25 -45 -29 -45 -4 0 -20 19 -36 42
-37 54 -58 63 -50 19z"/>
<path d="M15747 6566 c-53 -19 -141 -89 -175 -139 -17 -23 -63 -101 -102 -172
-89 -159 -109 -187 -170 -231 -26 -19 -65 -56 -86 -82 l-38 -47 55 50 c30 28
86 72 123 99 81 58 100 84 191 256 79 149 131 215 199 248 25 13 46 25 46 28
0 5 2 6 -43 -10z"/>
<path d="M11260 6012 c0 -4 30 -25 66 -47 37 -21 89 -55 116 -76 84 -62 95
-96 39 -118 -21 -9 -33 -8 -60 5 -67 33 -141 -14 -141 -90 0 -51 43 -98 92
-99 43 -1 85 24 99 60 9 26 10 26 87 19 198 -17 367 -73 386 -129 13 -36 1
-55 -50 -84 -29 -17 -34 -23 -19 -23 22 0 62 24 83 48 34 44 -3 103 -88 141
-52 23 -213 57 -317 67 -61 5 -72 9 -77 28 -8 31 -7 36 8 36 14 0 56 45 56 61
0 22 -66 80 -159 141 -103 67 -121 76 -121 60z m162 -279 c26 -23 24 -78 -4
-97 -12 -9 -32 -16 -44 -16 -23 0 -64 42 -64 65 0 7 9 24 21 39 24 30 63 34
91 9z"/>
<path d="M10460 5880 c45 -42 147 -116 175 -126 10 -4 15 0 15 10 0 9 -4 16
-9 16 -13 0 -114 61 -176 106 l-50 36 45 -42z"/>
<path d="M10656 5905 c-8 -22 20 -104 45 -131 30 -32 19 -54 -28 -55 -30 0
-34 -2 -18 -9 11 -5 37 -9 57 -9 33 -1 41 -7 64 -41 15 -22 29 -38 33 -35 3 3
11 43 18 88 l12 82 -3 -105 c-2 -80 0 -110 11 -127 14 -20 13 -23 -1 -29 -9
-4 -58 -4 -108 -2 -86 4 -89 4 -52 -9 21 -8 75 -17 119 -20 78 -6 81 -7 116
-47 l36 -40 16 49 c10 27 17 78 18 114 1 48 3 59 9 41 12 -37 11 -122 -1 -181
-10 -47 -15 -53 -54 -70 -23 -10 -67 -23 -96 -28 l-54 -9 51 -1 c29 0 74 6
102 15 l50 16 45 -33 c26 -19 46 -37 47 -41 0 -4 -12 -14 -27 -22 -36 -19 -26
-20 25 -2 22 8 43 11 47 8 4 -4 5 20 2 53 -5 55 -5 58 8 35 8 -14 14 -42 15
-62 0 -40 9 -49 72 -66 l37 -10 -34 33 c-35 36 -40 51 -50 158 -4 37 -10 67
-13 67 -4 0 -22 -17 -39 -37 -44 -51 -53 -35 -53 95 0 114 -9 143 -61 186 -46
39 -62 31 -76 -38 -13 -66 -30 -90 -53 -76 -12 7 -15 33 -15 129 0 113 -1 121
-24 145 -31 33 -42 23 -47 -40 -1 -26 -7 -51 -12 -56 -15 -15 -42 3 -50 36 -6
21 -15 32 -29 34 -15 2 -24 13 -28 33 -7 31 -19 38 -29 14z"/>
<path d="M14776 5859 c-6 -33 -25 -53 -189 -202 -54 -49 -104 -102 -112 -118
-9 -16 -22 -64 -29 -107 -8 -43 -21 -93 -31 -111 -9 -18 -14 -35 -12 -38 9 -9
48 58 63 109 14 45 33 70 144 183 136 140 168 187 177 266 6 54 -1 67 -11 18z"/>
<path d="M14955 5781 c-148 -69 -377 -291 -455 -441 l-13 -25 24 20 c13 11 68
59 121 107 95 85 152 126 251 182 32 19 59 45 82 81 19 29 46 62 61 74 l27 21
-29 0 c-16 0 -47 -9 -69 -19z"/>
<path d="M15068 5612 c-20 -10 -58 -45 -87 -82 -105 -132 -284 -239 -446 -266
-49 -8 -113 -26 -141 -40 -47 -22 -184 -136 -184 -153 0 -4 28 20 63 52 75 72
122 93 219 102 102 10 190 31 246 59 84 43 205 140 282 227 117 131 119 135
48 101z"/>
<path d="M13750 5207 c-81 -19 -127 -47 -200 -122 -80 -82 -108 -102 -179
-131 l-56 -24 46 0 c82 0 140 25 265 117 66 48 148 102 184 121 59 31 71 34
125 29 45 -4 54 -3 35 5 -41 16 -161 19 -220 5z"/>
<path d="M11624 5146 c-18 -14 -18 -16 19 -46 36 -30 49 -71 28 -84 -5 -3 -36
14 -69 39 -50 37 -67 45 -103 45 -61 0 -73 -10 -65 -53 6 -34 6 -35 -37 -45
-24 -6 -52 -21 -63 -33 -19 -22 -19 -22 3 -10 12 6 69 11 133 11 l111 0 -36
35 c-51 52 -43 63 13 16 49 -42 107 -71 142 -71 29 0 25 -28 -7 -64 -25 -27
-23 -26 21 7 30 23 60 37 78 37 l29 0 -17 33 c-9 17 -30 52 -47 77 l-30 45 41
-39 c22 -21 51 -58 64 -82 20 -38 27 -44 55 -44 17 0 34 -4 37 -8 3 -5 -11
-40 -31 -78 l-35 -69 31 35 c17 19 41 50 53 67 18 26 30 33 56 33 19 0 32 3
30 8 -23 43 -47 103 -52 127 -6 26 -3 24 21 -16 66 -108 76 -119 110 -119 17
0 34 -4 38 -10 3 -5 -8 -36 -25 -70 -34 -68 -33 -79 2 -22 12 20 38 54 57 75
l34 38 -16 35 c-28 59 -19 65 26 18 39 -42 44 -45 70 -35 32 12 28 31 -6 31
-30 0 -61 23 -87 65 -30 48 -50 46 -50 -5 0 -60 -21 -51 -80 34 -33 47 -64 80
-85 90 -49 24 -135 20 -135 -6 0 -6 16 -36 36 -68 33 -54 37 -80 14 -80 -5 0
-38 30 -72 66 -97 101 -154 126 -204 90z"/>
<path d="M13974 5099 c-89 -10 -184 -44 -349 -124 -71 -35 -157 -72 -190 -83
l-60 -21 30 -12 c17 -7 66 -12 110 -12 102 0 189 29 328 112 159 94 190 105
280 106 l79 0 -39 16 c-53 23 -106 28 -189 18z"/>
<path d="M12875 5042 c-5 -4 -10 -52 -11 -108 0 -147 -25 -196 -145 -285 -69
-51 -149 -133 -149 -152 0 -6 12 -23 27 -39 l26 -28 75 81 75 80 41 -44 c29
-30 57 -47 89 -57 26 -7 66 -25 90 -39 l42 -27 33 37 33 37 -53 20 c-29 11
-68 23 -85 27 -18 3 -54 26 -80 50 l-48 44 32 32 31 32 28 -27 c16 -14 59 -38
95 -51 36 -14 84 -41 106 -59 33 -29 48 -35 101 -38 l61 -3 -52 53 c-36 36
-80 66 -142 96 -51 25 -105 60 -125 80 -33 35 -35 40 -32 99 2 34 7 65 10 68
11 11 210 -9 260 -26 26 -8 85 -42 131 -75 113 -82 135 -92 211 -97 86 -6 170
14 344 83 134 54 143 56 217 52 85 -3 82 10 -4 19 -74 7 -145 -8 -303 -67
-108 -40 -157 -53 -216 -57 -94 -7 -112 0 -235 83 -95 64 -180 94 -271 94 -22
0 -60 3 -85 6 l-47 7 -6 48 c-4 30 -12 49 -19 49 -8 0 -19 2 -27 5 -7 3 -17 1
-23 -3z"/>
<path d="M12667 5033 c-4 -3 -7 -30 -7 -60 0 -29 -4 -53 -8 -53 -4 0 -25 9
-47 20 -78 40 -176 17 -245 -57 l-35 -36 37 27 c83 62 191 83 238 46 14 -11
33 -20 44 -20 13 0 17 -5 13 -20 -3 -10 0 -21 6 -23 6 -2 7 -14 4 -29 -5 -18
-24 -36 -62 -57 -80 -45 -186 -150 -224 -221 l-33 -61 41 20 c22 12 47 21 55
21 9 0 23 12 33 28 33 54 89 104 171 154 46 28 85 55 87 62 2 6 5 68 7 139 l4
127 -36 0 c-20 0 -40 -3 -43 -7z"/>
<path d="M12514 4812 c-28 -16 -67 -41 -87 -56 -32 -25 -40 -27 -67 -18 -21 8
-39 8 -60 1 -33 -12 -36 -19 -18 -37 26 -26 72 -13 150 43 42 29 94 63 115 74
21 11 34 20 28 20 -5 1 -33 -12 -61 -27z"/>
<path d="M13000 4828 c9 -9 120 -57 120 -53 0 6 -70 41 -100 50 -14 4 -23 5
-20 3z"/>
<path d="M13182 4716 c49 -48 85 -59 108 -31 19 23 1 37 -46 34 -32 -2 -52 3
-76 20 -25 17 -21 11 14 -23z"/>
</g>
</svg>
